<svg xmlns="http://www.w3.org/2000/svg" xmlns:xlink="http://www.w3.org/1999/xlink" width="800" height="600" viewBox="0 0 3200 2400">
<defs>
  <clipPath id="clip020">
    <rect x="0" y="0" width="3200" height="2400"></rect>
  </clipPath>
</defs>
<path clip-path="url(#clip020)" d="M0 2400 L3200 2400 L3200 0 L0 0  Z" fill="#ffffff" fill-rule="evenodd" fill-opacity="1"></path>
<defs>
  <clipPath id="clip021">
    <rect x="640" y="0" width="2241" height="2241"></rect>
  </clipPath>
</defs>
<path clip-path="url(#clip020)" d="M286.237 2204.92 L3152.76 2204.92 L3152.76 131.032 L286.237 131.032  Z" fill="#ffffff" fill-rule="evenodd" fill-opacity="1"></path>
<defs>
  <clipPath id="clip022">
    <rect x="286" y="131" width="2868" height="2075"></rect>
  </clipPath>
</defs>
<polyline clip-path="url(#clip022)" style="stroke:#000000; stroke-linecap:round; stroke-linejoin:round; stroke-width:2; stroke-opacity:0.1; fill:none" points="619.499,2204.92 619.499,131.032 "></polyline>
<polyline clip-path="url(#clip022)" style="stroke:#000000; stroke-linecap:round; stroke-linejoin:round; stroke-width:2; stroke-opacity:0.1; fill:none" points="1270.5,2204.92 1270.5,131.032 "></polyline>
<polyline clip-path="url(#clip022)" style="stroke:#000000; stroke-linecap:round; stroke-linejoin:round; stroke-width:2; stroke-opacity:0.1; fill:none" points="1921.5,2204.92 1921.5,131.032 "></polyline>
<polyline clip-path="url(#clip022)" style="stroke:#000000; stroke-linecap:round; stroke-linejoin:round; stroke-width:2; stroke-opacity:0.1; fill:none" points="2572.49,2204.92 2572.49,131.032 "></polyline>
<polyline clip-path="url(#clip022)" style="stroke:#000000; stroke-linecap:round; stroke-linejoin:round; stroke-width:2; stroke-opacity:0.1; fill:none" points="286.237,2057.67 3152.76,2057.67 "></polyline>
<polyline clip-path="url(#clip022)" style="stroke:#000000; stroke-linecap:round; stroke-linejoin:round; stroke-width:2; stroke-opacity:0.1; fill:none" points="286.237,1671.98 3152.76,1671.98 "></polyline>
<polyline clip-path="url(#clip022)" style="stroke:#000000; stroke-linecap:round; stroke-linejoin:round; stroke-width:2; stroke-opacity:0.1; fill:none" points="286.237,1286.29 3152.76,1286.29 "></polyline>
<polyline clip-path="url(#clip022)" style="stroke:#000000; stroke-linecap:round; stroke-linejoin:round; stroke-width:2; stroke-opacity:0.1; fill:none" points="286.237,900.6 3152.76,900.6 "></polyline>
<polyline clip-path="url(#clip022)" style="stroke:#000000; stroke-linecap:round; stroke-linejoin:round; stroke-width:2; stroke-opacity:0.1; fill:none" points="286.237,514.91 3152.76,514.91 "></polyline>
<polyline clip-path="url(#clip020)" style="stroke:#000000; stroke-linecap:round; stroke-linejoin:round; stroke-width:4; stroke-opacity:1; fill:none" points="286.237,2204.92 3152.76,2204.92 "></polyline>
<polyline clip-path="url(#clip020)" style="stroke:#000000; stroke-linecap:round; stroke-linejoin:round; stroke-width:4; stroke-opacity:1; fill:none" points="619.499,2204.92 619.499,2186.02 "></polyline>
<polyline clip-path="url(#clip020)" style="stroke:#000000; stroke-linecap:round; stroke-linejoin:round; stroke-width:4; stroke-opacity:1; fill:none" points="1270.5,2204.92 1270.5,2186.02 "></polyline>
<polyline clip-path="url(#clip020)" style="stroke:#000000; stroke-linecap:round; stroke-linejoin:round; stroke-width:4; stroke-opacity:1; fill:none" points="1921.5,2204.92 1921.5,2186.02 "></polyline>
<polyline clip-path="url(#clip020)" style="stroke:#000000; stroke-linecap:round; stroke-linejoin:round; stroke-width:4; stroke-opacity:1; fill:none" points="2572.49,2204.92 2572.49,2186.02 "></polyline>
<path clip-path="url(#clip020)" d="M558.481 2256.89 L588.156 2256.89 L588.156 2260.83 L558.481 2260.83 L558.481 2256.89 Z" fill="#000000" fill-rule="nonzero" fill-opacity="1"></path><path clip-path="url(#clip020)" d="M602.277 2269.78 L618.596 2269.78 L618.596 2273.72 L596.652 2273.72 L596.652 2269.78 Q599.314 2267.03 603.897 2262.4 Q608.504 2257.75 609.684 2256.41 Q611.93 2253.88 612.809 2252.15 Q613.712 2250.39 613.712 2248.7 Q613.712 2245.94 611.767 2244.21 Q609.846 2242.47 606.744 2242.47 Q604.545 2242.47 602.092 2243.23 Q599.661 2244 596.883 2245.55 L596.883 2240.83 Q599.707 2239.69 602.161 2239.11 Q604.615 2238.53 606.652 2238.53 Q612.022 2238.53 615.217 2241.22 Q618.411 2243.91 618.411 2248.4 Q618.411 2250.53 617.601 2252.45 Q616.814 2254.34 614.707 2256.94 Q614.129 2257.61 611.027 2260.83 Q607.925 2264.02 602.277 2269.78 Z" fill="#000000" fill-rule="nonzero" fill-opacity="1"></path><path clip-path="url(#clip020)" d="M638.411 2242.24 Q634.8 2242.24 632.971 2245.8 Q631.166 2249.34 631.166 2256.47 Q631.166 2263.58 632.971 2267.15 Q634.8 2270.69 638.411 2270.69 Q642.045 2270.69 643.851 2267.15 Q645.679 2263.58 645.679 2256.47 Q645.679 2249.34 643.851 2245.8 Q642.045 2242.24 638.411 2242.24 M638.411 2238.53 Q644.221 2238.53 647.277 2243.14 Q650.355 2247.72 650.355 2256.47 Q650.355 2265.2 647.277 2269.81 Q644.221 2274.39 638.411 2274.39 Q632.601 2274.39 629.522 2269.81 Q626.466 2265.2 626.466 2256.47 Q626.466 2247.72 629.522 2243.14 Q632.601 2238.53 638.411 2238.53 Z" fill="#000000" fill-rule="nonzero" fill-opacity="1"></path><path clip-path="url(#clip020)" d="M668.573 2242.24 Q664.962 2242.24 663.133 2245.8 Q661.327 2249.34 661.327 2256.47 Q661.327 2263.58 663.133 2267.15 Q664.962 2270.69 668.573 2270.69 Q672.207 2270.69 674.013 2267.15 Q675.841 2263.58 675.841 2256.47 Q675.841 2249.34 674.013 2245.8 Q672.207 2242.24 668.573 2242.24 M668.573 2238.53 Q674.383 2238.53 677.438 2243.14 Q680.517 2247.72 680.517 2256.47 Q680.517 2265.2 677.438 2269.81 Q674.383 2274.39 668.573 2274.39 Q662.763 2274.39 659.684 2269.81 Q656.628 2265.2 656.628 2256.47 Q656.628 2247.72 659.684 2243.14 Q662.763 2238.53 668.573 2238.53 Z" fill="#000000" fill-rule="nonzero" fill-opacity="1"></path><path clip-path="url(#clip020)" d="M1209.48 2256.89 L1239.16 2256.89 L1239.16 2260.83 L1209.48 2260.83 L1209.48 2256.89 Z" fill="#000000" fill-rule="nonzero" fill-opacity="1"></path><path clip-path="url(#clip020)" d="M1250.06 2269.78 L1257.7 2269.78 L1257.7 2243.42 L1249.39 2245.09 L1249.39 2240.83 L1257.65 2239.16 L1262.33 2239.16 L1262.33 2269.78 L1269.97 2269.78 L1269.97 2273.72 L1250.06 2273.72 L1250.06 2269.78 Z" fill="#000000" fill-rule="nonzero" fill-opacity="1"></path><path clip-path="url(#clip020)" d="M1289.41 2242.24 Q1285.8 2242.24 1283.97 2245.8 Q1282.16 2249.34 1282.16 2256.47 Q1282.16 2263.58 1283.97 2267.15 Q1285.8 2270.69 1289.41 2270.69 Q1293.04 2270.69 1294.85 2267.15 Q1296.68 2263.58 1296.68 2256.47 Q1296.68 2249.34 1294.85 2245.8 Q1293.04 2242.24 1289.41 2242.24 M1289.41 2238.53 Q1295.22 2238.53 1298.28 2243.14 Q1301.35 2247.72 1301.35 2256.47 Q1301.35 2265.2 1298.28 2269.81 Q1295.22 2274.39 1289.41 2274.39 Q1283.6 2274.39 1280.52 2269.81 Q1277.46 2265.2 1277.46 2256.47 Q1277.46 2247.72 1280.52 2243.14 Q1283.6 2238.53 1289.41 2238.53 Z" fill="#000000" fill-rule="nonzero" fill-opacity="1"></path><path clip-path="url(#clip020)" d="M1319.57 2242.24 Q1315.96 2242.24 1314.13 2245.8 Q1312.33 2249.34 1312.33 2256.47 Q1312.33 2263.58 1314.13 2267.15 Q1315.96 2270.69 1319.57 2270.69 Q1323.21 2270.69 1325.01 2267.15 Q1326.84 2263.58 1326.84 2256.47 Q1326.84 2249.34 1325.01 2245.8 Q1323.21 2242.24 1319.57 2242.24 M1319.57 2238.53 Q1325.38 2238.53 1328.44 2243.14 Q1331.52 2247.72 1331.52 2256.47 Q1331.52 2265.2 1328.44 2269.81 Q1325.38 2274.39 1319.57 2274.39 Q1313.76 2274.39 1310.68 2269.81 Q1307.63 2265.2 1307.63 2256.47 Q1307.63 2247.72 1310.68 2243.14 Q1313.76 2238.53 1319.57 2238.53 Z" fill="#000000" fill-rule="nonzero" fill-opacity="1"></path><path clip-path="url(#clip020)" d="M1921.5 2242.24 Q1917.88 2242.24 1916.06 2245.8 Q1914.25 2249.34 1914.25 2256.47 Q1914.25 2263.58 1916.06 2267.15 Q1917.88 2270.69 1921.5 2270.69 Q1925.13 2270.69 1926.94 2267.15 Q1928.76 2263.58 1928.76 2256.47 Q1928.76 2249.34 1926.94 2245.8 Q1925.13 2242.24 1921.5 2242.24 M1921.5 2238.53 Q1927.31 2238.53 1930.36 2243.14 Q1933.44 2247.72 1933.44 2256.47 Q1933.44 2265.2 1930.36 2269.81 Q1927.31 2274.39 1921.5 2274.39 Q1915.69 2274.39 1912.61 2269.81 Q1909.55 2265.2 1909.55 2256.47 Q1909.55 2247.72 1912.61 2243.14 Q1915.69 2238.53 1921.5 2238.53 Z" fill="#000000" fill-rule="nonzero" fill-opacity="1"></path><path clip-path="url(#clip020)" d="M2532.1 2269.78 L2539.74 2269.78 L2539.74 2243.42 L2531.43 2245.09 L2531.43 2240.83 L2539.69 2239.16 L2544.37 2239.16 L2544.37 2269.78 L2552.01 2269.78 L2552.01 2273.72 L2532.1 2273.72 L2532.1 2269.78 Z" fill="#000000" fill-rule="nonzero" fill-opacity="1"></path><path clip-path="url(#clip020)" d="M2571.45 2242.24 Q2567.84 2242.24 2566.01 2245.8 Q2564.21 2249.34 2564.21 2256.47 Q2564.21 2263.58 2566.01 2267.15 Q2567.84 2270.69 2571.45 2270.69 Q2575.09 2270.69 2576.89 2267.15 Q2578.72 2263.58 2578.72 2256.47 Q2578.72 2249.34 2576.89 2245.8 Q2575.09 2242.24 2571.45 2242.24 M2571.45 2238.53 Q2577.26 2238.53 2580.32 2243.14 Q2583.4 2247.72 2583.4 2256.47 Q2583.4 2265.2 2580.32 2269.81 Q2577.26 2274.39 2571.45 2274.39 Q2565.64 2274.39 2562.56 2269.81 Q2559.51 2265.2 2559.51 2256.47 Q2559.51 2247.72 2562.56 2243.14 Q2565.64 2238.53 2571.45 2238.53 Z" fill="#000000" fill-rule="nonzero" fill-opacity="1"></path><path clip-path="url(#clip020)" d="M2601.61 2242.24 Q2598 2242.24 2596.17 2245.8 Q2594.37 2249.34 2594.37 2256.47 Q2594.37 2263.58 2596.17 2267.15 Q2598 2270.69 2601.61 2270.69 Q2605.25 2270.69 2607.05 2267.15 Q2608.88 2263.58 2608.88 2256.47 Q2608.88 2249.34 2607.05 2245.8 Q2605.25 2242.24 2601.61 2242.24 M2601.61 2238.53 Q2607.42 2238.53 2610.48 2243.14 Q2613.56 2247.72 2613.56 2256.47 Q2613.56 2265.2 2610.48 2269.81 Q2607.42 2274.39 2601.61 2274.39 Q2595.8 2274.39 2592.73 2269.81 Q2589.67 2265.2 2589.67 2256.47 Q2589.67 2247.72 2592.73 2243.14 Q2595.8 2238.53 2601.61 2238.53 Z" fill="#000000" fill-rule="nonzero" fill-opacity="1"></path><path clip-path="url(#clip020)" d="M1701.32 2314.26 L1708.23 2314.26 L1720.04 2331.93 L1731.91 2314.26 L1738.82 2314.26 L1723.54 2337.08 L1739.83 2361.78 L1732.93 2361.78 L1719.56 2341.57 L1706.1 2361.78 L1699.16 2361.78 L1716.12 2336.42 L1701.32 2314.26 Z" fill="#000000" fill-rule="nonzero" fill-opacity="1"></path><polyline clip-path="url(#clip020)" style="stroke:#000000; stroke-linecap:round; stroke-linejoin:round; stroke-width:4; stroke-opacity:1; fill:none" points="286.237,2204.92 286.237,131.032 "></polyline>
<polyline clip-path="url(#clip020)" style="stroke:#000000; stroke-linecap:round; stroke-linejoin:round; stroke-width:4; stroke-opacity:1; fill:none" points="286.237,2057.67 305.134,2057.67 "></polyline>
<polyline clip-path="url(#clip020)" style="stroke:#000000; stroke-linecap:round; stroke-linejoin:round; stroke-width:4; stroke-opacity:1; fill:none" points="286.237,1671.98 305.134,1671.98 "></polyline>
<polyline clip-path="url(#clip020)" style="stroke:#000000; stroke-linecap:round; stroke-linejoin:round; stroke-width:4; stroke-opacity:1; fill:none" points="286.237,1286.29 305.134,1286.29 "></polyline>
<polyline clip-path="url(#clip020)" style="stroke:#000000; stroke-linecap:round; stroke-linejoin:round; stroke-width:4; stroke-opacity:1; fill:none" points="286.237,900.6 305.134,900.6 "></polyline>
<polyline clip-path="url(#clip020)" style="stroke:#000000; stroke-linecap:round; stroke-linejoin:round; stroke-width:4; stroke-opacity:1; fill:none" points="286.237,514.91 305.134,514.91 "></polyline>
<path clip-path="url(#clip020)" d="M116.2 2058.12 L145.876 2058.12 L145.876 2062.06 L116.2 2062.06 L116.2 2058.12 Z" fill="#000000" fill-rule="nonzero" fill-opacity="1"></path><path clip-path="url(#clip020)" d="M159.996 2071.01 L176.316 2071.01 L176.316 2074.95 L154.371 2074.95 L154.371 2071.01 Q157.033 2068.26 161.617 2063.63 Q166.223 2058.98 167.404 2057.63 Q169.649 2055.11 170.529 2053.38 Q171.431 2051.62 171.431 2049.93 Q171.431 2047.17 169.487 2045.44 Q167.566 2043.7 164.464 2043.7 Q162.265 2043.7 159.811 2044.46 Q157.38 2045.23 154.603 2046.78 L154.603 2042.06 Q157.427 2040.92 159.88 2040.34 Q162.334 2039.76 164.371 2039.76 Q169.742 2039.76 172.936 2042.45 Q176.13 2045.13 176.13 2049.63 Q176.13 2051.75 175.32 2053.68 Q174.533 2055.57 172.427 2058.17 Q171.848 2058.84 168.746 2062.06 Q165.644 2065.25 159.996 2071.01 Z" fill="#000000" fill-rule="nonzero" fill-opacity="1"></path><path clip-path="url(#clip020)" d="M196.13 2043.47 Q192.519 2043.47 190.69 2047.03 Q188.885 2050.57 188.885 2057.7 Q188.885 2064.81 190.69 2068.38 Q192.519 2071.92 196.13 2071.92 Q199.765 2071.92 201.57 2068.38 Q203.399 2064.81 203.399 2057.7 Q203.399 2050.57 201.57 2047.03 Q199.765 2043.47 196.13 2043.47 M196.13 2039.76 Q201.94 2039.76 204.996 2044.37 Q208.075 2048.95 208.075 2057.7 Q208.075 2066.43 204.996 2071.04 Q201.94 2075.62 196.13 2075.62 Q190.32 2075.62 187.241 2071.04 Q184.186 2066.43 184.186 2057.7 Q184.186 2048.95 187.241 2044.37 Q190.32 2039.76 196.13 2039.76 Z" fill="#000000" fill-rule="nonzero" fill-opacity="1"></path><path clip-path="url(#clip020)" d="M226.292 2043.47 Q222.681 2043.47 220.852 2047.03 Q219.047 2050.57 219.047 2057.7 Q219.047 2064.81 220.852 2068.38 Q222.681 2071.92 226.292 2071.92 Q229.926 2071.92 231.732 2068.38 Q233.561 2064.81 233.561 2057.7 Q233.561 2050.57 231.732 2047.03 Q229.926 2043.47 226.292 2043.47 M226.292 2039.76 Q232.102 2039.76 235.158 2044.37 Q238.237 2048.95 238.237 2057.7 Q238.237 2066.43 235.158 2071.04 Q232.102 2075.62 226.292 2075.62 Q220.482 2075.62 217.403 2071.04 Q214.348 2066.43 214.348 2057.7 Q214.348 2048.95 217.403 2044.37 Q220.482 2039.76 226.292 2039.76 Z" fill="#000000" fill-rule="nonzero" fill-opacity="1"></path><path clip-path="url(#clip020)" d="M116.2 1672.43 L145.876 1672.43 L145.876 1676.37 L116.2 1676.37 L116.2 1672.43 Z" fill="#000000" fill-rule="nonzero" fill-opacity="1"></path><path clip-path="url(#clip020)" d="M156.779 1685.32 L164.417 1685.32 L164.417 1658.96 L156.107 1660.63 L156.107 1656.37 L164.371 1654.7 L169.047 1654.7 L169.047 1685.32 L176.686 1685.32 L176.686 1689.26 L156.779 1689.26 L156.779 1685.32 Z" fill="#000000" fill-rule="nonzero" fill-opacity="1"></path><path clip-path="url(#clip020)" d="M196.13 1657.78 Q192.519 1657.78 190.69 1661.34 Q188.885 1664.88 188.885 1672.01 Q188.885 1679.12 190.69 1682.69 Q192.519 1686.23 196.13 1686.23 Q199.765 1686.23 201.57 1682.69 Q203.399 1679.12 203.399 1672.01 Q203.399 1664.88 201.57 1661.34 Q199.765 1657.78 196.13 1657.78 M196.13 1654.07 Q201.94 1654.07 204.996 1658.68 Q208.075 1663.26 208.075 1672.01 Q208.075 1680.74 204.996 1685.35 Q201.94 1689.93 196.13 1689.93 Q190.32 1689.93 187.241 1685.35 Q184.186 1680.74 184.186 1672.01 Q184.186 1663.26 187.241 1658.68 Q190.32 1654.07 196.13 1654.07 Z" fill="#000000" fill-rule="nonzero" fill-opacity="1"></path><path clip-path="url(#clip020)" d="M226.292 1657.78 Q222.681 1657.78 220.852 1661.34 Q219.047 1664.88 219.047 1672.01 Q219.047 1679.12 220.852 1682.69 Q222.681 1686.23 226.292 1686.23 Q229.926 1686.23 231.732 1682.69 Q233.561 1679.12 233.561 1672.01 Q233.561 1664.88 231.732 1661.34 Q229.926 1657.78 226.292 1657.78 M226.292 1654.07 Q232.102 1654.07 235.158 1658.68 Q238.237 1663.26 238.237 1672.01 Q238.237 1680.74 235.158 1685.35 Q232.102 1689.93 226.292 1689.93 Q220.482 1689.93 217.403 1685.35 Q214.348 1680.74 214.348 1672.01 Q214.348 1663.26 217.403 1658.68 Q220.482 1654.07 226.292 1654.07 Z" fill="#000000" fill-rule="nonzero" fill-opacity="1"></path><path clip-path="url(#clip020)" d="M226.292 1272.09 Q222.681 1272.09 220.852 1275.65 Q219.047 1279.19 219.047 1286.32 Q219.047 1293.43 220.852 1297 Q222.681 1300.54 226.292 1300.54 Q229.926 1300.54 231.732 1297 Q233.561 1293.43 233.561 1286.32 Q233.561 1279.19 231.732 1275.65 Q229.926 1272.09 226.292 1272.09 M226.292 1268.38 Q232.102 1268.38 235.158 1272.99 Q238.237 1277.57 238.237 1286.32 Q238.237 1295.05 235.158 1299.66 Q232.102 1304.24 226.292 1304.24 Q220.482 1304.24 217.403 1299.66 Q214.348 1295.05 214.348 1286.32 Q214.348 1277.57 217.403 1272.99 Q220.482 1268.38 226.292 1268.38 Z" fill="#000000" fill-rule="nonzero" fill-opacity="1"></path><path clip-path="url(#clip020)" d="M156.779 913.945 L164.417 913.945 L164.417 887.579 L156.107 889.246 L156.107 884.986 L164.371 883.32 L169.047 883.32 L169.047 913.945 L176.686 913.945 L176.686 917.88 L156.779 917.88 L156.779 913.945 Z" fill="#000000" fill-rule="nonzero" fill-opacity="1"></path><path clip-path="url(#clip020)" d="M196.13 886.398 Q192.519 886.398 190.69 889.963 Q188.885 893.505 188.885 900.635 Q188.885 907.741 190.69 911.306 Q192.519 914.847 196.13 914.847 Q199.765 914.847 201.57 911.306 Q203.399 907.741 203.399 900.635 Q203.399 893.505 201.57 889.963 Q199.765 886.398 196.13 886.398 M196.13 882.695 Q201.94 882.695 204.996 887.301 Q208.075 891.885 208.075 900.635 Q208.075 909.361 204.996 913.968 Q201.94 918.551 196.13 918.551 Q190.32 918.551 187.241 913.968 Q184.186 909.361 184.186 900.635 Q184.186 891.885 187.241 887.301 Q190.32 882.695 196.13 882.695 Z" fill="#000000" fill-rule="nonzero" fill-opacity="1"></path><path clip-path="url(#clip020)" d="M226.292 886.398 Q222.681 886.398 220.852 889.963 Q219.047 893.505 219.047 900.635 Q219.047 907.741 220.852 911.306 Q222.681 914.847 226.292 914.847 Q229.926 914.847 231.732 911.306 Q233.561 907.741 233.561 900.635 Q233.561 893.505 231.732 889.963 Q229.926 886.398 226.292 886.398 M226.292 882.695 Q232.102 882.695 235.158 887.301 Q238.237 891.885 238.237 900.635 Q238.237 909.361 235.158 913.968 Q232.102 918.551 226.292 918.551 Q220.482 918.551 217.403 913.968 Q214.348 909.361 214.348 900.635 Q214.348 891.885 217.403 887.301 Q220.482 882.695 226.292 882.695 Z" fill="#000000" fill-rule="nonzero" fill-opacity="1"></path><path clip-path="url(#clip020)" d="M159.996 528.255 L176.316 528.255 L176.316 532.19 L154.371 532.19 L154.371 528.255 Q157.033 525.5 161.617 520.871 Q166.223 516.218 167.404 514.875 Q169.649 512.352 170.529 510.616 Q171.431 508.857 171.431 507.167 Q171.431 504.412 169.487 502.676 Q167.566 500.94 164.464 500.94 Q162.265 500.94 159.811 501.704 Q157.38 502.468 154.603 504.019 L154.603 499.297 Q157.427 498.162 159.88 497.584 Q162.334 497.005 164.371 497.005 Q169.742 497.005 172.936 499.69 Q176.13 502.375 176.13 506.866 Q176.13 508.996 175.32 510.917 Q174.533 512.815 172.427 515.408 Q171.848 516.079 168.746 519.297 Q165.644 522.491 159.996 528.255 Z" fill="#000000" fill-rule="nonzero" fill-opacity="1"></path><path clip-path="url(#clip020)" d="M196.13 500.709 Q192.519 500.709 190.69 504.273 Q188.885 507.815 188.885 514.945 Q188.885 522.051 190.69 525.616 Q192.519 529.158 196.13 529.158 Q199.765 529.158 201.57 525.616 Q203.399 522.051 203.399 514.945 Q203.399 507.815 201.57 504.273 Q199.765 500.709 196.13 500.709 M196.13 497.005 Q201.94 497.005 204.996 501.611 Q208.075 506.195 208.075 514.945 Q208.075 523.672 204.996 528.278 Q201.94 532.861 196.13 532.861 Q190.32 532.861 187.241 528.278 Q184.186 523.672 184.186 514.945 Q184.186 506.195 187.241 501.611 Q190.32 497.005 196.13 497.005 Z" fill="#000000" fill-rule="nonzero" fill-opacity="1"></path><path clip-path="url(#clip020)" d="M226.292 500.709 Q222.681 500.709 220.852 504.273 Q219.047 507.815 219.047 514.945 Q219.047 522.051 220.852 525.616 Q222.681 529.158 226.292 529.158 Q229.926 529.158 231.732 525.616 Q233.561 522.051 233.561 514.945 Q233.561 507.815 231.732 504.273 Q229.926 500.709 226.292 500.709 M226.292 497.005 Q232.102 497.005 235.158 501.611 Q238.237 506.195 238.237 514.945 Q238.237 523.672 235.158 528.278 Q232.102 532.861 226.292 532.861 Q220.482 532.861 217.403 528.278 Q214.348 523.672 214.348 514.945 Q214.348 506.195 217.403 501.611 Q220.482 497.005 226.292 497.005 Z" fill="#000000" fill-rule="nonzero" fill-opacity="1"></path><path clip-path="url(#clip020)" d="M6.42416 1188.01 L6.42416 1181.11 L25.9669 1167.93 L6.42416 1154.85 L6.42416 1147.94 L31.3141 1164.75 L53.9442 1164.75 L53.9442 1171.21 L31.3141 1171.21 L6.42416 1188.01 Z" fill="#000000" fill-rule="nonzero" fill-opacity="1"></path><path clip-path="url(#clip020)" d="M1058.59 20.1573 L1047.49 50.2555 L1069.73 50.2555 L1058.59 20.1573 M1053.97 12.096 L1063.25 12.096 L1086.3 72.576 L1077.79 72.576 L1072.28 57.061 L1045.02 57.061 L1039.51 72.576 L1030.88 72.576 L1053.97 12.096 Z" fill="#000000" fill-rule="nonzero" fill-opacity="1"></path><path clip-path="url(#clip020)" d="M1124.66 49.3643 Q1124.66 41.2625 1121.3 36.8065 Q1117.98 32.3505 1111.94 32.3505 Q1105.95 32.3505 1102.58 36.8065 Q1099.26 41.2625 1099.26 49.3643 Q1099.26 57.4256 1102.58 61.8816 Q1105.95 66.3376 1111.94 66.3376 Q1117.98 66.3376 1121.3 61.8816 Q1124.66 57.4256 1124.66 49.3643 M1132.12 66.9452 Q1132.12 78.5308 1126.97 84.1616 Q1121.83 89.8329 1111.21 89.8329 Q1107.28 89.8329 1103.8 89.2252 Q1100.32 88.6581 1097.03 87.4428 L1097.03 80.1917 Q1100.32 81.9741 1103.52 82.8248 Q1106.72 83.6755 1110.04 83.6755 Q1117.37 83.6755 1121.02 79.8271 Q1124.66 76.0193 1124.66 68.282 L1124.66 64.5957 Q1122.35 68.6061 1118.75 70.5911 Q1115.14 72.576 1110.12 72.576 Q1101.77 72.576 1096.67 66.2161 Q1091.57 59.8562 1091.57 49.3643 Q1091.57 38.832 1096.67 32.472 Q1101.77 26.1121 1110.12 26.1121 Q1115.14 26.1121 1118.75 28.0971 Q1122.35 30.082 1124.66 34.0924 L1124.66 27.2059 L1132.12 27.2059 L1132.12 66.9452 Z" fill="#000000" fill-rule="nonzero" fill-opacity="1"></path><path clip-path="url(#clip020)" d="M1186.28 48.0275 L1186.28 51.6733 L1152.01 51.6733 Q1152.49 59.3701 1156.62 63.421 Q1160.8 67.4314 1168.21 67.4314 Q1172.5 67.4314 1176.51 66.3781 Q1180.56 65.3249 1184.53 63.2184 L1184.53 70.267 Q1180.52 71.9684 1176.31 72.8596 Q1172.1 73.7508 1167.76 73.7508 Q1156.91 73.7508 1150.55 67.4314 Q1144.23 61.1119 1144.23 50.3365 Q1144.23 39.1965 1150.22 32.6746 Q1156.26 26.1121 1166.47 26.1121 Q1175.62 26.1121 1180.93 32.0264 Q1186.28 37.9003 1186.28 48.0275 M1178.82 45.84 Q1178.74 39.7232 1175.38 36.0774 Q1172.06 32.4315 1166.55 32.4315 Q1160.31 32.4315 1156.54 35.9558 Q1152.82 39.4801 1152.25 45.8805 L1178.82 45.84 Z" fill="#000000" fill-rule="nonzero" fill-opacity="1"></path><path clip-path="url(#clip020)" d="M1236.22 45.1919 L1236.22 72.576 L1228.77 72.576 L1228.77 45.4349 Q1228.77 38.994 1226.26 35.7938 Q1223.75 32.5936 1218.72 32.5936 Q1212.69 32.5936 1209.2 36.4419 Q1205.72 40.2903 1205.72 46.9338 L1205.72 72.576 L1198.23 72.576 L1198.23 27.2059 L1205.72 27.2059 L1205.72 34.2544 Q1208.39 30.163 1212 28.1376 Q1215.64 26.1121 1220.38 26.1121 Q1228.2 26.1121 1232.21 30.9732 Q1236.22 35.7938 1236.22 45.1919 Z" fill="#000000" fill-rule="nonzero" fill-opacity="1"></path><path clip-path="url(#clip020)" d="M1258.46 14.324 L1258.46 27.2059 L1273.82 27.2059 L1273.82 32.9987 L1258.46 32.9987 L1258.46 57.6282 Q1258.46 63.1779 1259.96 64.7578 Q1261.5 66.3376 1266.16 66.3376 L1273.82 66.3376 L1273.82 72.576 L1266.16 72.576 Q1257.53 72.576 1254.25 69.3758 Q1250.97 66.1351 1250.97 57.6282 L1250.97 32.9987 L1245.5 32.9987 L1245.5 27.2059 L1250.97 27.2059 L1250.97 14.324 L1258.46 14.324 Z" fill="#000000" fill-rule="nonzero" fill-opacity="1"></path><path clip-path="url(#clip020)" d="M1318.5 18.8205 L1318.5 41.5461 L1328.79 41.5461 Q1334.5 41.5461 1337.62 38.5889 Q1340.74 35.6318 1340.74 30.163 Q1340.74 24.7348 1337.62 21.7777 Q1334.5 18.8205 1328.79 18.8205 L1318.5 18.8205 M1310.31 12.096 L1328.79 12.096 Q1338.95 12.096 1344.14 16.714 Q1349.37 21.2916 1349.37 30.163 Q1349.37 39.1155 1344.14 43.6931 Q1338.95 48.2706 1328.79 48.2706 L1318.5 48.2706 L1318.5 72.576 L1310.31 72.576 L1310.31 12.096 Z" fill="#000000" fill-rule="nonzero" fill-opacity="1"></path><path clip-path="url(#clip020)" d="M1374.64 32.4315 Q1368.65 32.4315 1365.16 37.1306 Q1361.68 41.7891 1361.68 49.9314 Q1361.68 58.0738 1365.12 62.7728 Q1368.61 67.4314 1374.64 67.4314 Q1380.6 67.4314 1384.08 62.7323 Q1387.57 58.0333 1387.57 49.9314 Q1387.57 41.8701 1384.08 37.1711 Q1380.6 32.4315 1374.64 32.4315 M1374.64 26.1121 Q1384.36 26.1121 1389.91 32.4315 Q1395.46 38.7509 1395.46 49.9314 Q1395.46 61.0714 1389.91 67.4314 Q1384.36 73.7508 1374.64 73.7508 Q1364.88 73.7508 1359.33 67.4314 Q1353.82 61.0714 1353.82 49.9314 Q1353.82 38.7509 1359.33 32.4315 Q1364.88 26.1121 1374.64 26.1121 Z" fill="#000000" fill-rule="nonzero" fill-opacity="1"></path><path clip-path="url(#clip020)" d="M1436.74 28.5427 L1436.74 35.5912 Q1433.58 33.9709 1430.18 33.1607 Q1426.78 32.3505 1423.13 32.3505 Q1417.58 32.3505 1414.79 34.0519 Q1412.03 35.7533 1412.03 39.156 Q1412.03 41.7486 1414.02 43.2475 Q1416 44.7058 1422 46.0426 L1424.55 46.6097 Q1432.49 48.3111 1435.81 51.4303 Q1439.17 54.509 1439.17 60.0587 Q1439.17 66.3781 1434.15 70.0644 Q1429.17 73.7508 1420.42 73.7508 Q1416.77 73.7508 1412.8 73.0216 Q1408.87 72.3329 1404.5 70.9151 L1404.5 63.2184 Q1408.63 65.3654 1412.64 66.4591 Q1416.65 67.5124 1420.58 67.5124 Q1425.85 67.5124 1428.68 65.73 Q1431.52 63.9071 1431.52 60.6258 Q1431.52 57.5877 1429.45 55.9673 Q1427.43 54.3469 1420.5 52.8481 L1417.91 52.2405 Q1410.98 50.7821 1407.9 47.7845 Q1404.82 44.7463 1404.82 39.4801 Q1404.82 33.0797 1409.36 29.5959 Q1413.9 26.1121 1422.24 26.1121 Q1426.37 26.1121 1430.02 26.7198 Q1433.66 27.3274 1436.74 28.5427 Z" fill="#000000" fill-rule="nonzero" fill-opacity="1"></path><path clip-path="url(#clip020)" d="M1451.04 27.2059 L1458.5 27.2059 L1458.5 72.576 L1451.04 72.576 L1451.04 27.2059 M1451.04 9.54393 L1458.5 9.54393 L1458.5 18.9825 L1451.04 18.9825 L1451.04 9.54393 Z" fill="#000000" fill-rule="nonzero" fill-opacity="1"></path><path clip-path="url(#clip020)" d="M1481.47 14.324 L1481.47 27.2059 L1496.82 27.2059 L1496.82 32.9987 L1481.47 32.9987 L1481.47 57.6282 Q1481.47 63.1779 1482.96 64.7578 Q1484.5 66.3376 1489.16 66.3376 L1496.82 66.3376 L1496.82 72.576 L1489.16 72.576 Q1480.53 72.576 1477.25 69.3758 Q1473.97 66.1351 1473.97 57.6282 L1473.97 32.9987 L1468.5 32.9987 L1468.5 27.2059 L1473.97 27.2059 L1473.97 14.324 L1481.47 14.324 Z" fill="#000000" fill-rule="nonzero" fill-opacity="1"></path><path clip-path="url(#clip020)" d="M1506.62 27.2059 L1514.07 27.2059 L1514.07 72.576 L1506.62 72.576 L1506.62 27.2059 M1506.62 9.54393 L1514.07 9.54393 L1514.07 18.9825 L1506.62 18.9825 L1506.62 9.54393 Z" fill="#000000" fill-rule="nonzero" fill-opacity="1"></path><path clip-path="url(#clip020)" d="M1547.25 32.4315 Q1541.26 32.4315 1537.77 37.1306 Q1534.29 41.7891 1534.29 49.9314 Q1534.29 58.0738 1537.73 62.7728 Q1541.22 67.4314 1547.25 67.4314 Q1553.21 67.4314 1556.69 62.7323 Q1560.17 58.0333 1560.17 49.9314 Q1560.17 41.8701 1556.69 37.1711 Q1553.21 32.4315 1547.25 32.4315 M1547.25 26.1121 Q1556.97 26.1121 1562.52 32.4315 Q1568.07 38.7509 1568.07 49.9314 Q1568.07 61.0714 1562.52 67.4314 Q1556.97 73.7508 1547.25 73.7508 Q1537.49 73.7508 1531.94 67.4314 Q1526.43 61.0714 1526.43 49.9314 Q1526.43 38.7509 1531.94 32.4315 Q1537.49 26.1121 1547.25 26.1121 Z" fill="#000000" fill-rule="nonzero" fill-opacity="1"></path><path clip-path="url(#clip020)" d="M1618.14 45.1919 L1618.14 72.576 L1610.69 72.576 L1610.69 45.4349 Q1610.69 38.994 1608.18 35.7938 Q1605.67 32.5936 1600.64 32.5936 Q1594.61 32.5936 1591.12 36.4419 Q1587.64 40.2903 1587.64 46.9338 L1587.64 72.576 L1580.15 72.576 L1580.15 27.2059 L1587.64 27.2059 L1587.64 34.2544 Q1590.31 30.163 1593.92 28.1376 Q1597.56 26.1121 1602.3 26.1121 Q1610.12 26.1121 1614.13 30.9732 Q1618.14 35.7938 1618.14 45.1919 Z" fill="#000000" fill-rule="nonzero" fill-opacity="1"></path><path clip-path="url(#clip020)" d="M1661.93 28.5427 L1661.93 35.5912 Q1658.77 33.9709 1655.37 33.1607 Q1651.97 32.3505 1648.32 32.3505 Q1642.77 32.3505 1639.98 34.0519 Q1637.22 35.7533 1637.22 39.156 Q1637.22 41.7486 1639.21 43.2475 Q1641.19 44.7058 1647.19 46.0426 L1649.74 46.6097 Q1657.68 48.3111 1661 51.4303 Q1664.36 54.509 1664.36 60.0587 Q1664.36 66.3781 1659.34 70.0644 Q1654.36 73.7508 1645.61 73.7508 Q1641.96 73.7508 1637.99 73.0216 Q1634.06 72.3329 1629.69 70.9151 L1629.69 63.2184 Q1633.82 65.3654 1637.83 66.4591 Q1641.84 67.5124 1645.77 67.5124 Q1651.04 67.5124 1653.87 65.73 Q1656.71 63.9071 1656.71 60.6258 Q1656.71 57.5877 1654.64 55.9673 Q1652.62 54.3469 1645.69 52.8481 L1643.1 52.2405 Q1636.17 50.7821 1633.09 47.7845 Q1630.01 44.7463 1630.01 39.4801 Q1630.01 33.0797 1634.55 29.5959 Q1639.09 26.1121 1647.43 26.1121 Q1651.56 26.1121 1655.21 26.7198 Q1658.85 27.3274 1661.93 28.5427 Z" fill="#000000" fill-rule="nonzero" fill-opacity="1"></path><path clip-path="url(#clip020)" d="M1723.22 49.7694 Q1714.19 49.7694 1710.71 51.8354 Q1707.22 53.9013 1707.22 58.8839 Q1707.22 62.8538 1709.81 65.2034 Q1712.45 67.5124 1716.94 67.5124 Q1723.14 67.5124 1726.87 63.1374 Q1730.64 58.7219 1730.64 51.4303 L1730.64 49.7694 L1723.22 49.7694 M1738.09 46.6907 L1738.09 72.576 L1730.64 72.576 L1730.64 65.6895 Q1728.08 69.8214 1724.28 71.8063 Q1720.47 73.7508 1714.96 73.7508 Q1707.99 73.7508 1703.86 69.8619 Q1699.77 65.9325 1699.77 59.3701 Q1699.77 51.7138 1704.87 47.825 Q1710.02 43.9361 1720.18 43.9361 L1730.64 43.9361 L1730.64 43.2069 Q1730.64 38.0623 1727.23 35.2672 Q1723.87 32.4315 1717.75 32.4315 Q1713.87 32.4315 1710.18 33.3632 Q1706.49 34.295 1703.09 36.1584 L1703.09 29.2718 Q1707.18 27.692 1711.03 26.9223 Q1714.88 26.1121 1718.52 26.1121 Q1728.37 26.1121 1733.23 31.2163 Q1738.09 36.3204 1738.09 46.6907 Z" fill="#000000" fill-rule="nonzero" fill-opacity="1"></path><path clip-path="url(#clip020)" d="M1760.82 14.324 L1760.82 27.2059 L1776.17 27.2059 L1776.17 32.9987 L1760.82 32.9987 L1760.82 57.6282 Q1760.82 63.1779 1762.31 64.7578 Q1763.85 66.3376 1768.51 66.3376 L1776.17 66.3376 L1776.17 72.576 L1768.51 72.576 Q1759.88 72.576 1756.6 69.3758 Q1753.32 66.1351 1753.32 57.6282 L1753.32 32.9987 L1747.85 32.9987 L1747.85 27.2059 L1753.32 27.2059 L1753.32 14.324 L1760.82 14.324 Z" fill="#000000" fill-rule="nonzero" fill-opacity="1"></path><path clip-path="url(#clip020)" d="M1804.28 12.096 L1855.44 12.096 L1855.44 18.9825 L1833.97 18.9825 L1833.97 72.576 L1825.75 72.576 L1825.75 18.9825 L1804.28 18.9825 L1804.28 12.096 Z" fill="#000000" fill-rule="nonzero" fill-opacity="1"></path><path clip-path="url(#clip020)" d="M1844.95 27.2059 L1852.41 27.2059 L1861.72 62.6108 L1871 27.2059 L1879.79 27.2059 L1889.11 62.6108 L1898.38 27.2059 L1905.84 27.2059 L1893.97 72.576 L1885.18 72.576 L1875.42 35.3887 L1865.61 72.576 L1856.82 72.576 L1844.95 27.2059 Z" fill="#000000" fill-rule="nonzero" fill-opacity="1"></path><path clip-path="url(#clip020)" d="M1934.72 32.4315 Q1928.73 32.4315 1925.24 37.1306 Q1921.76 41.7891 1921.76 49.9314 Q1921.76 58.0738 1925.2 62.7728 Q1928.68 67.4314 1934.72 67.4314 Q1940.68 67.4314 1944.16 62.7323 Q1947.64 58.0333 1947.64 49.9314 Q1947.64 41.8701 1944.16 37.1711 Q1940.68 32.4315 1934.72 32.4315 M1934.72 26.1121 Q1944.44 26.1121 1949.99 32.4315 Q1955.54 38.7509 1955.54 49.9314 Q1955.54 61.0714 1949.99 67.4314 Q1944.44 73.7508 1934.72 73.7508 Q1924.96 73.7508 1919.41 67.4314 Q1913.9 61.0714 1913.9 49.9314 Q1913.9 38.7509 1919.41 32.4315 Q1924.96 26.1121 1934.72 26.1121 Z" fill="#000000" fill-rule="nonzero" fill-opacity="1"></path><path clip-path="url(#clip020)" d="M1986.21 12.096 L2037.37 12.096 L2037.37 18.9825 L2015.9 18.9825 L2015.9 72.576 L2007.68 72.576 L2007.68 18.9825 L1986.21 18.9825 L1986.21 12.096 Z" fill="#000000" fill-rule="nonzero" fill-opacity="1"></path><path clip-path="url(#clip020)" d="M2042.39 27.2059 L2049.85 27.2059 L2049.85 72.576 L2042.39 72.576 L2042.39 27.2059 M2042.39 9.54393 L2049.85 9.54393 L2049.85 18.9825 L2042.39 18.9825 L2042.39 9.54393 Z" fill="#000000" fill-rule="nonzero" fill-opacity="1"></path><path clip-path="url(#clip020)" d="M2100.77 35.9153 Q2103.56 30.8922 2107.45 28.5022 Q2111.34 26.1121 2116.61 26.1121 Q2123.7 26.1121 2127.54 31.0947 Q2131.39 36.0368 2131.39 45.1919 L2131.39 72.576 L2123.9 72.576 L2123.9 45.4349 Q2123.9 38.913 2121.59 35.7533 Q2119.28 32.5936 2114.54 32.5936 Q2108.75 32.5936 2105.39 36.4419 Q2102.02 40.2903 2102.02 46.9338 L2102.02 72.576 L2094.53 72.576 L2094.53 45.4349 Q2094.53 38.8725 2092.22 35.7533 Q2089.91 32.5936 2085.09 32.5936 Q2079.38 32.5936 2076.02 36.4824 Q2072.65 40.3308 2072.65 46.9338 L2072.65 72.576 L2065.16 72.576 L2065.16 27.2059 L2072.65 27.2059 L2072.65 34.2544 Q2075.21 30.082 2078.77 28.0971 Q2082.34 26.1121 2087.24 26.1121 Q2092.18 26.1121 2095.62 28.6237 Q2099.11 31.1352 2100.77 35.9153 Z" fill="#000000" fill-rule="nonzero" fill-opacity="1"></path><path clip-path="url(#clip020)" d="M2185.07 48.0275 L2185.07 51.6733 L2150.8 51.6733 Q2151.28 59.3701 2155.41 63.421 Q2159.59 67.4314 2167 67.4314 Q2171.29 67.4314 2175.3 66.3781 Q2179.35 65.3249 2183.32 63.2184 L2183.32 70.267 Q2179.31 71.9684 2175.1 72.8596 Q2170.89 73.7508 2166.55 73.7508 Q2155.7 73.7508 2149.34 67.4314 Q2143.02 61.1119 2143.02 50.3365 Q2143.02 39.1965 2149.01 32.6746 Q2155.05 26.1121 2165.26 26.1121 Q2174.41 26.1121 2179.72 32.0264 Q2185.07 37.9003 2185.07 48.0275 M2177.61 45.84 Q2177.53 39.7232 2174.17 36.0774 Q2170.85 32.4315 2165.34 32.4315 Q2159.1 32.4315 2155.33 35.9558 Q2151.61 39.4801 2151.04 45.8805 L2177.61 45.84 Z" fill="#000000" fill-rule="nonzero" fill-opacity="1"></path><path clip-path="url(#clip020)" d="M2226.22 28.5427 L2226.22 35.5912 Q2223.06 33.9709 2219.66 33.1607 Q2216.26 32.3505 2212.61 32.3505 Q2207.06 32.3505 2204.27 34.0519 Q2201.51 35.7533 2201.51 39.156 Q2201.51 41.7486 2203.5 43.2475 Q2205.48 44.7058 2211.48 46.0426 L2214.03 46.6097 Q2221.97 48.3111 2225.29 51.4303 Q2228.65 54.509 2228.65 60.0587 Q2228.65 66.3781 2223.63 70.0644 Q2218.65 73.7508 2209.9 73.7508 Q2206.25 73.7508 2202.28 73.0216 Q2198.35 72.3329 2193.98 70.9151 L2193.98 63.2184 Q2198.11 65.3654 2202.12 66.4591 Q2206.13 67.5124 2210.06 67.5124 Q2215.33 67.5124 2218.16 65.73 Q2221 63.9071 2221 60.6258 Q2221 57.5877 2218.93 55.9673 Q2216.91 54.3469 2209.98 52.8481 L2207.39 52.2405 Q2200.46 50.7821 2197.38 47.7845 Q2194.3 44.7463 2194.3 39.4801 Q2194.3 33.0797 2198.84 29.5959 Q2203.38 26.1121 2211.72 26.1121 Q2215.85 26.1121 2219.5 26.7198 Q2223.15 27.3274 2226.22 28.5427 Z" fill="#000000" fill-rule="nonzero" fill-opacity="1"></path><path clip-path="url(#clip020)" d="M2247.9 14.324 L2247.9 27.2059 L2263.25 27.2059 L2263.25 32.9987 L2247.9 32.9987 L2247.9 57.6282 Q2247.9 63.1779 2249.4 64.7578 Q2250.93 66.3376 2255.59 66.3376 L2263.25 66.3376 L2263.25 72.576 L2255.59 72.576 Q2246.96 72.576 2243.68 69.3758 Q2240.4 66.1351 2240.4 57.6282 L2240.4 32.9987 L2234.93 32.9987 L2234.93 27.2059 L2240.4 27.2059 L2240.4 14.324 L2247.9 14.324 Z" fill="#000000" fill-rule="nonzero" fill-opacity="1"></path><path clip-path="url(#clip020)" d="M2311.86 48.0275 L2311.86 51.6733 L2277.59 51.6733 Q2278.08 59.3701 2282.21 63.421 Q2286.38 67.4314 2293.79 67.4314 Q2298.09 67.4314 2302.1 66.3781 Q2306.15 65.3249 2310.12 63.2184 L2310.12 70.267 Q2306.11 71.9684 2301.89 72.8596 Q2297.68 73.7508 2293.35 73.7508 Q2282.49 73.7508 2276.13 67.4314 Q2269.81 61.1119 2269.81 50.3365 Q2269.81 39.1965 2275.81 32.6746 Q2281.84 26.1121 2292.05 26.1121 Q2301.21 26.1121 2306.51 32.0264 Q2311.86 37.9003 2311.86 48.0275 M2304.41 45.84 Q2304.33 39.7232 2300.96 36.0774 Q2297.64 32.4315 2292.13 32.4315 Q2285.89 32.4315 2282.13 35.9558 Q2278.4 39.4801 2277.83 45.8805 L2304.41 45.84 Z" fill="#000000" fill-rule="nonzero" fill-opacity="1"></path><path clip-path="url(#clip020)" d="M2331.3 65.7705 L2331.3 89.8329 L2323.81 89.8329 L2323.81 27.2059 L2331.3 27.2059 L2331.3 34.0924 Q2333.65 30.0415 2337.22 28.0971 Q2340.82 26.1121 2345.81 26.1121 Q2354.07 26.1121 2359.22 32.6746 Q2364.4 39.2371 2364.4 49.9314 Q2364.4 60.6258 2359.22 67.1883 Q2354.07 73.7508 2345.81 73.7508 Q2340.82 73.7508 2337.22 71.8063 Q2333.65 69.8214 2331.3 65.7705 M2356.66 49.9314 Q2356.66 41.7081 2353.26 37.0496 Q2349.9 32.3505 2343.98 32.3505 Q2338.07 32.3505 2334.67 37.0496 Q2331.3 41.7081 2331.3 49.9314 Q2331.3 58.1548 2334.67 62.8538 Q2338.07 67.5124 2343.98 67.5124 Q2349.9 67.5124 2353.26 62.8538 Q2356.66 58.1548 2356.66 49.9314 Z" fill="#000000" fill-rule="nonzero" fill-opacity="1"></path><path clip-path="url(#clip020)" d="M2405.68 28.5427 L2405.68 35.5912 Q2402.52 33.9709 2399.12 33.1607 Q2395.71 32.3505 2392.07 32.3505 Q2386.52 32.3505 2383.72 34.0519 Q2380.97 35.7533 2380.97 39.156 Q2380.97 41.7486 2382.95 43.2475 Q2384.94 44.7058 2390.93 46.0426 L2393.49 46.6097 Q2401.43 48.3111 2404.75 51.4303 Q2408.11 54.509 2408.11 60.0587 Q2408.11 66.3781 2403.09 70.0644 Q2398.1 73.7508 2389.35 73.7508 Q2385.71 73.7508 2381.74 73.0216 Q2377.81 72.3329 2373.43 70.9151 L2373.43 63.2184 Q2377.57 65.3654 2381.58 66.4591 Q2385.59 67.5124 2389.52 67.5124 Q2394.78 67.5124 2397.62 65.73 Q2400.45 63.9071 2400.45 60.6258 Q2400.45 57.5877 2398.39 55.9673 Q2396.36 54.3469 2389.43 52.8481 L2386.84 52.2405 Q2379.92 50.7821 2376.84 47.7845 Q2373.76 44.7463 2373.76 39.4801 Q2373.76 33.0797 2378.29 29.5959 Q2382.83 26.1121 2391.18 26.1121 Q2395.31 26.1121 2398.95 26.7198 Q2402.6 27.3274 2405.68 28.5427 Z" fill="#000000" fill-rule="nonzero" fill-opacity="1"></path><circle clip-path="url(#clip022)" cx="1586.35" cy="888.029" r="14.4" fill="#0000ff" fill-rule="evenodd" fill-opacity="0.8" stroke="#000000" stroke-opacity="0.8" stroke-width="4.8"></circle>
<circle clip-path="url(#clip022)" cx="1091.72" cy="652.815" r="14.4" fill="#0000ff" fill-rule="evenodd" fill-opacity="0.8" stroke="#000000" stroke-opacity="0.8" stroke-width="4.8"></circle>
<circle clip-path="url(#clip022)" cx="986.454" cy="702.477" r="14.4" fill="#0000ff" fill-rule="evenodd" fill-opacity="0.8" stroke="#000000" stroke-opacity="0.8" stroke-width="4.8"></circle>
<circle clip-path="url(#clip022)" cx="1257.49" cy="780.426" r="14.4" fill="#0000ff" fill-rule="evenodd" fill-opacity="0.8" stroke="#000000" stroke-opacity="0.8" stroke-width="4.8"></circle>
<circle clip-path="url(#clip022)" cx="1974.98" cy="1286.27" r="14.4" fill="#0000ff" fill-rule="evenodd" fill-opacity="0.8" stroke="#000000" stroke-opacity="0.8" stroke-width="4.8"></circle>
<circle clip-path="url(#clip022)" cx="643.804" cy="331.014" r="14.4" fill="#0000ff" fill-rule="evenodd" fill-opacity="0.8" stroke="#000000" stroke-opacity="0.8" stroke-width="4.8"></circle>
<circle clip-path="url(#clip022)" cx="923.464" cy="660.768" r="14.4" fill="#0000ff" fill-rule="evenodd" fill-opacity="0.8" stroke="#000000" stroke-opacity="0.8" stroke-width="4.8"></circle>
<circle clip-path="url(#clip022)" cx="643.136" cy="305.283" r="14.4" fill="#0000ff" fill-rule="evenodd" fill-opacity="0.8" stroke="#000000" stroke-opacity="0.8" stroke-width="4.8"></circle>
<circle clip-path="url(#clip022)" cx="1460.98" cy="960.22" r="14.4" fill="#0000ff" fill-rule="evenodd" fill-opacity="0.8" stroke="#000000" stroke-opacity="0.8" stroke-width="4.8"></circle>
<circle clip-path="url(#clip022)" cx="2445.37" cy="1628.22" r="14.4" fill="#0000ff" fill-rule="evenodd" fill-opacity="0.8" stroke="#000000" stroke-opacity="0.8" stroke-width="4.8"></circle>
<circle clip-path="url(#clip022)" cx="1954.81" cy="1196.51" r="14.4" fill="#0000ff" fill-rule="evenodd" fill-opacity="0.8" stroke="#000000" stroke-opacity="0.8" stroke-width="4.8"></circle>
<circle clip-path="url(#clip022)" cx="2146.4" cy="1371.2" r="14.4" fill="#0000ff" fill-rule="evenodd" fill-opacity="0.8" stroke="#000000" stroke-opacity="0.8" stroke-width="4.8"></circle>
<circle clip-path="url(#clip022)" cx="1181.8" cy="810.944" r="14.4" fill="#0000ff" fill-rule="evenodd" fill-opacity="0.8" stroke="#000000" stroke-opacity="0.8" stroke-width="4.8"></circle>
<circle clip-path="url(#clip022)" cx="3071.63" cy="2121.32" r="14.4" fill="#0000ff" fill-rule="evenodd" fill-opacity="0.8" stroke="#000000" stroke-opacity="0.8" stroke-width="4.8"></circle>
<circle clip-path="url(#clip022)" cx="2125.62" cy="1379.19" r="14.4" fill="#0000ff" fill-rule="evenodd" fill-opacity="0.8" stroke="#000000" stroke-opacity="0.8" stroke-width="4.8"></circle>
<circle clip-path="url(#clip022)" cx="1236.35" cy="789.855" r="14.4" fill="#0000ff" fill-rule="evenodd" fill-opacity="0.8" stroke="#000000" stroke-opacity="0.8" stroke-width="4.8"></circle>
<circle clip-path="url(#clip022)" cx="367.364" cy="189.727" r="14.4" fill="#0000ff" fill-rule="evenodd" fill-opacity="0.8" stroke="#000000" stroke-opacity="0.8" stroke-width="4.8"></circle>
<circle clip-path="url(#clip022)" cx="1910.35" cy="1347.52" r="14.4" fill="#0000ff" fill-rule="evenodd" fill-opacity="0.8" stroke="#000000" stroke-opacity="0.8" stroke-width="4.8"></circle>
<circle clip-path="url(#clip022)" cx="2609.62" cy="1826.15" r="14.4" fill="#0000ff" fill-rule="evenodd" fill-opacity="0.8" stroke="#000000" stroke-opacity="0.8" stroke-width="4.8"></circle>
<circle clip-path="url(#clip022)" cx="690.394" cy="367.218" r="14.4" fill="#0000ff" fill-rule="evenodd" fill-opacity="0.8" stroke="#000000" stroke-opacity="0.8" stroke-width="4.8"></circle>
<circle clip-path="url(#clip022)" cx="1642.84" cy="959.284" r="14.4" fill="#0000ff" fill-rule="evenodd" fill-opacity="0.8" stroke="#000000" stroke-opacity="0.8" stroke-width="4.8"></circle>
<path clip-path="url(#clip022)" d="M1561.08 849.933 L1545.08 865.933 L1561.08 881.933 L1577.08 865.933 L1561.08 849.933 Z" fill="#ff0000" fill-rule="evenodd" fill-opacity="0.8" stroke="#000000" stroke-opacity="0.8" stroke-width="4.8"></path>
<path clip-path="url(#clip022)" d="M1129.93 665.605 L1113.93 681.605 L1129.93 697.605 L1145.93 681.605 L1129.93 665.605 Z" fill="#ff0000" fill-rule="evenodd" fill-opacity="0.8" stroke="#000000" stroke-opacity="0.8" stroke-width="4.8"></path>
<path clip-path="url(#clip022)" d="M1015 706.522 L999.003 722.522 L1015 738.522 L1031 722.522 L1015 706.522 Z" fill="#ff0000" fill-rule="evenodd" fill-opacity="0.8" stroke="#000000" stroke-opacity="0.8" stroke-width="4.8"></path>
<path clip-path="url(#clip022)" d="M1288.1 787.386 L1272.1 803.386 L1288.1 819.386 L1304.1 803.386 L1288.1 787.386 Z" fill="#ff0000" fill-rule="evenodd" fill-opacity="0.8" stroke="#000000" stroke-opacity="0.8" stroke-width="4.8"></path>
<path clip-path="url(#clip022)" d="M1932.58 1237.45 L1916.58 1253.45 L1932.58 1269.45 L1948.58 1253.45 L1932.58 1237.45 Z" fill="#ff0000" fill-rule="evenodd" fill-opacity="0.8" stroke="#000000" stroke-opacity="0.8" stroke-width="4.8"></path>
<path clip-path="url(#clip022)" d="M666.401 333.008 L650.401 349.008 L666.401 365.008 L682.401 349.008 L666.401 333.008 Z" fill="#ff0000" fill-rule="evenodd" fill-opacity="0.8" stroke="#000000" stroke-opacity="0.8" stroke-width="4.8"></path>
<path clip-path="url(#clip022)" d="M932.454 651.03 L916.454 667.03 L932.454 683.03 L948.454 667.03 L932.454 651.03 Z" fill="#ff0000" fill-rule="evenodd" fill-opacity="0.8" stroke="#000000" stroke-opacity="0.8" stroke-width="4.8"></path>
<path clip-path="url(#clip022)" d="M654.374 297.956 L638.374 313.956 L654.374 329.956 L670.374 313.956 L654.374 297.956 Z" fill="#ff0000" fill-rule="evenodd" fill-opacity="0.8" stroke="#000000" stroke-opacity="0.8" stroke-width="4.8"></path>
<path clip-path="url(#clip022)" d="M1524.39 992.443 L1508.39 1008.44 L1524.39 1024.44 L1540.39 1008.44 L1524.39 992.443 Z" fill="#ff0000" fill-rule="evenodd" fill-opacity="0.8" stroke="#000000" stroke-opacity="0.8" stroke-width="4.8"></path>
<path clip-path="url(#clip022)" d="M2393.01 1571.12 L2377.01 1587.12 L2393.01 1603.12 L2409.01 1587.12 L2393.01 1571.12 Z" fill="#ff0000" fill-rule="evenodd" fill-opacity="0.8" stroke="#000000" stroke-opacity="0.8" stroke-width="4.8"></path>
<path clip-path="url(#clip022)" d="M1940.72 1169.5 L1924.72 1185.5 L1940.72 1201.5 L1956.72 1185.5 L1940.72 1169.5 Z" fill="#ff0000" fill-rule="evenodd" fill-opacity="0.8" stroke="#000000" stroke-opacity="0.8" stroke-width="4.8"></path>
<path clip-path="url(#clip022)" d="M2134 1345.34 L2118 1361.34 L2134 1377.34 L2150 1361.34 L2134 1345.34 Z" fill="#ff0000" fill-rule="evenodd" fill-opacity="0.8" stroke="#000000" stroke-opacity="0.8" stroke-width="4.8"></path>
<path clip-path="url(#clip022)" d="M1219.83 820.711 L1203.83 836.711 L1219.83 852.711 L1235.83 836.711 L1219.83 820.711 Z" fill="#ff0000" fill-rule="evenodd" fill-opacity="0.8" stroke="#000000" stroke-opacity="0.8" stroke-width="4.8"></path>
<path clip-path="url(#clip022)" d="M3037.49 2078.47 L3021.49 2094.47 L3037.49 2110.47 L3053.49 2094.47 L3037.49 2078.47 Z" fill="#ff0000" fill-rule="evenodd" fill-opacity="0.8" stroke="#000000" stroke-opacity="0.8" stroke-width="4.8"></path>
<path clip-path="url(#clip022)" d="M2081.52 1328.64 L2065.52 1344.64 L2081.52 1360.64 L2097.52 1344.64 L2081.52 1328.64 Z" fill="#ff0000" fill-rule="evenodd" fill-opacity="0.8" stroke="#000000" stroke-opacity="0.8" stroke-width="4.8"></path>
<path clip-path="url(#clip022)" d="M1259.55 790.409 L1243.55 806.409 L1259.55 822.409 L1275.55 806.409 L1259.55 790.409 Z" fill="#ff0000" fill-rule="evenodd" fill-opacity="0.8" stroke="#000000" stroke-opacity="0.8" stroke-width="4.8"></path>
<path clip-path="url(#clip022)" d="M395.063 196.327 L379.063 212.327 L395.063 228.327 L411.063 212.327 L395.063 196.327 Z" fill="#ff0000" fill-rule="evenodd" fill-opacity="0.8" stroke="#000000" stroke-opacity="0.8" stroke-width="4.8"></path>
<path clip-path="url(#clip022)" d="M1937.56 1350.12 L1921.56 1366.12 L1937.56 1382.12 L1953.56 1366.12 L1937.56 1350.12 Z" fill="#ff0000" fill-rule="evenodd" fill-opacity="0.8" stroke="#000000" stroke-opacity="0.8" stroke-width="4.8"></path>
<path clip-path="url(#clip022)" d="M2660.04 1849.95 L2644.04 1865.95 L2660.04 1881.95 L2676.04 1865.95 L2660.04 1849.95 Z" fill="#ff0000" fill-rule="evenodd" fill-opacity="0.8" stroke="#000000" stroke-opacity="0.8" stroke-width="4.8"></path>
<path clip-path="url(#clip022)" d="M731.335 382.527 L715.335 398.527 L731.335 414.527 L747.335 398.527 L731.335 382.527 Z" fill="#ff0000" fill-rule="evenodd" fill-opacity="0.8" stroke="#000000" stroke-opacity="0.8" stroke-width="4.8"></path>
<path clip-path="url(#clip022)" d="M1626.2 928.853 L1610.2 944.853 L1626.2 960.853 L1642.2 944.853 L1626.2 928.853 Z" fill="#ff0000" fill-rule="evenodd" fill-opacity="0.8" stroke="#000000" stroke-opacity="0.8" stroke-width="4.8"></path>
<path clip-path="url(#clip022)" d="M1424.41 731.462 L1420.65 742.278 L1409.19 742.518 L1418.33 749.446 L1415 760.406 L1424.41 753.862 L1433.82 760.406 L1430.49 749.446 L1439.62 742.518 L1428.17 742.278 L1424.41 731.462 Z" fill="#008000" fill-rule="evenodd" fill-opacity="0.8" stroke="#000000" stroke-opacity="0.8" stroke-width="4.8"></path>
<path clip-path="url(#clip022)" d="M1243.27 752.982 L1239.51 763.798 L1228.06 764.038 L1237.19 770.966 L1233.87 781.926 L1243.27 775.382 L1252.68 781.926 L1249.35 770.966 L1258.49 764.038 L1247.03 763.798 L1243.27 752.982 Z" fill="#008000" fill-rule="evenodd" fill-opacity="0.8" stroke="#000000" stroke-opacity="0.8" stroke-width="4.8"></path>
<path clip-path="url(#clip022)" d="M1145.72 793.72 L1141.96 804.536 L1130.51 804.776 L1139.64 811.704 L1136.31 822.664 L1145.72 816.12 L1155.13 822.664 L1151.8 811.704 L1160.94 804.776 L1149.48 804.536 L1145.72 793.72 Z" fill="#008000" fill-rule="evenodd" fill-opacity="0.8" stroke="#000000" stroke-opacity="0.8" stroke-width="4.8"></path>
<path clip-path="url(#clip022)" d="M1479.93 935.439 L1476.17 946.255 L1464.71 946.495 L1473.85 953.423 L1470.52 964.383 L1479.93 957.839 L1489.34 964.383 L1486.01 953.423 L1495.14 946.495 L1483.69 946.255 L1479.93 935.439 Z" fill="#008000" fill-rule="evenodd" fill-opacity="0.8" stroke="#000000" stroke-opacity="0.8" stroke-width="4.8"></path>
<path clip-path="url(#clip022)" d="M1888.36 1203.55 L1884.6 1214.36 L1873.14 1214.6 L1882.28 1221.53 L1878.95 1232.49 L1888.36 1225.95 L1897.77 1232.49 L1894.44 1221.53 L1903.58 1214.6 L1892.12 1214.36 L1888.36 1203.55 Z" fill="#008000" fill-rule="evenodd" fill-opacity="0.8" stroke="#000000" stroke-opacity="0.8" stroke-width="4.8"></path>
<path clip-path="url(#clip022)" d="M690.394 351.218 L686.634 362.034 L675.178 362.274 L684.314 369.202 L680.986 380.162 L690.394 373.618 L699.802 380.162 L696.474 369.202 L705.61 362.274 L694.154 362.034 L690.394 351.218 Z" fill="#008000" fill-rule="evenodd" fill-opacity="0.8" stroke="#000000" stroke-opacity="0.8" stroke-width="4.8"></path>
<path clip-path="url(#clip022)" d="M986.454 686.477 L982.694 697.293 L971.238 697.533 L980.374 704.461 L977.046 715.421 L986.454 708.877 L995.862 715.421 L992.534 704.461 L1001.67 697.533 L990.214 697.293 L986.454 686.477 Z" fill="#008000" fill-rule="evenodd" fill-opacity="0.8" stroke="#000000" stroke-opacity="0.8" stroke-width="4.8"></path>
<path clip-path="url(#clip022)" d="M665.186 306.593 L661.426 317.409 L649.97 317.649 L659.106 324.577 L655.778 335.537 L665.186 328.993 L674.594 335.537 L671.266 324.577 L680.402 317.649 L668.946 317.409 L665.186 306.593 Z" fill="#008000" fill-rule="evenodd" fill-opacity="0.8" stroke="#000000" stroke-opacity="0.8" stroke-width="4.8"></path>
<path clip-path="url(#clip022)" d="M1800.71 1204.66 L1796.95 1215.48 L1785.49 1215.72 L1794.63 1222.65 L1791.3 1233.61 L1800.71 1227.06 L1810.12 1233.61 L1806.79 1222.65 L1815.93 1215.72 L1804.47 1215.48 L1800.71 1204.66 Z" fill="#008000" fill-rule="evenodd" fill-opacity="0.8" stroke="#000000" stroke-opacity="0.8" stroke-width="4.8"></path>
<path clip-path="url(#clip022)" d="M2125.62 1363.19 L2121.86 1374 L2110.41 1374.24 L2119.54 1381.17 L2116.21 1392.13 L2125.62 1385.59 L2135.03 1392.13 L2131.7 1381.17 L2140.84 1374.24 L2129.38 1374 L2125.62 1363.19 Z" fill="#008000" fill-rule="evenodd" fill-opacity="0.8" stroke="#000000" stroke-opacity="0.8" stroke-width="4.8"></path>
<path clip-path="url(#clip022)" d="M1894.07 1133.01 L1890.31 1143.83 L1878.85 1144.07 L1887.99 1150.99 L1884.66 1161.95 L1894.07 1155.41 L1903.48 1161.95 L1900.15 1150.99 L1909.29 1144.07 L1897.83 1143.83 L1894.07 1133.01 Z" fill="#008000" fill-rule="evenodd" fill-opacity="0.8" stroke="#000000" stroke-opacity="0.8" stroke-width="4.8"></path>
<path clip-path="url(#clip022)" d="M2016.53 1253.14 L2012.77 1263.95 L2001.31 1264.19 L2010.45 1271.12 L2007.12 1282.08 L2016.53 1275.54 L2025.94 1282.08 L2022.61 1271.12 L2031.74 1264.19 L2020.29 1263.95 L2016.53 1253.14 Z" fill="#008000" fill-rule="evenodd" fill-opacity="0.8" stroke="#000000" stroke-opacity="0.8" stroke-width="4.8"></path>
<path clip-path="url(#clip022)" d="M1423.68 960.702 L1419.92 971.518 L1408.46 971.758 L1417.6 978.686 L1414.27 989.646 L1423.68 983.102 L1433.09 989.646 L1429.76 978.686 L1438.9 971.758 L1427.44 971.518 L1423.68 960.702 Z" fill="#008000" fill-rule="evenodd" fill-opacity="0.8" stroke="#000000" stroke-opacity="0.8" stroke-width="4.8"></path>
<path clip-path="url(#clip022)" d="M2607.07 1739.29 L2603.31 1750.11 L2591.85 1750.35 L2600.99 1757.28 L2597.66 1768.24 L2607.07 1761.69 L2616.48 1768.24 L2613.15 1757.28 L2622.28 1750.35 L2610.83 1750.11 L2607.07 1739.29 Z" fill="#008000" fill-rule="evenodd" fill-opacity="0.8" stroke="#000000" stroke-opacity="0.8" stroke-width="4.8"></path>
<path clip-path="url(#clip022)" d="M1995.51 1261.13 L1991.75 1271.94 L1980.29 1272.18 L1989.43 1279.11 L1986.1 1290.07 L1995.51 1283.53 L2004.92 1290.07 L2001.59 1279.11 L2010.73 1272.18 L1999.27 1271.94 L1995.51 1261.13 Z" fill="#008000" fill-rule="evenodd" fill-opacity="0.8" stroke="#000000" stroke-opacity="0.8" stroke-width="4.8"></path>
<path clip-path="url(#clip022)" d="M1460.98 944.22 L1457.22 955.036 L1445.76 955.276 L1454.9 962.204 L1451.57 973.164 L1460.98 966.62 L1470.38 973.164 L1467.06 962.204 L1476.19 955.276 L1464.74 955.036 L1460.98 944.22 Z" fill="#008000" fill-rule="evenodd" fill-opacity="0.8" stroke="#000000" stroke-opacity="0.8" stroke-width="4.8"></path>
<path clip-path="url(#clip022)" d="M817.164 534.034 L813.404 544.85 L801.948 545.09 L811.084 552.018 L807.756 562.978 L817.164 556.434 L826.572 562.978 L823.244 552.018 L832.38 545.09 L820.924 544.85 L817.164 534.034 Z" fill="#008000" fill-rule="evenodd" fill-opacity="0.8" stroke="#000000" stroke-opacity="0.8" stroke-width="4.8"></path>
<path clip-path="url(#clip022)" d="M1985.67 1386.22 L1981.91 1397.03 L1970.45 1397.27 L1979.59 1404.2 L1976.26 1415.16 L1985.67 1408.62 L1995.08 1415.16 L1991.75 1404.2 L2000.89 1397.27 L1989.43 1397.03 L1985.67 1386.22 Z" fill="#008000" fill-rule="evenodd" fill-opacity="0.8" stroke="#000000" stroke-opacity="0.8" stroke-width="4.8"></path>
<path clip-path="url(#clip022)" d="M3013.92 2130.22 L3010.16 2141.04 L2998.71 2141.28 L3007.84 2148.21 L3004.51 2159.17 L3013.92 2152.62 L3023.33 2159.17 L3020 2148.21 L3029.14 2141.28 L3017.68 2141.04 L3013.92 2130.22 Z" fill="#008000" fill-rule="evenodd" fill-opacity="0.8" stroke="#000000" stroke-opacity="0.8" stroke-width="4.8"></path>
<path clip-path="url(#clip022)" d="M772.518 414.304 L768.758 425.12 L757.302 425.36 L766.438 432.288 L763.11 443.248 L772.518 436.704 L781.926 443.248 L778.598 432.288 L787.734 425.36 L776.278 425.12 L772.518 414.304 Z" fill="#008000" fill-rule="evenodd" fill-opacity="0.8" stroke="#000000" stroke-opacity="0.8" stroke-width="4.8"></path>
<path clip-path="url(#clip022)" d="M1566.99 879.171 L1563.23 889.987 L1551.78 890.227 L1560.91 897.155 L1557.58 908.115 L1566.99 901.571 L1576.4 908.115 L1573.07 897.155 L1582.21 890.227 L1570.75 889.987 L1566.99 879.171 Z" fill="#008000" fill-rule="evenodd" fill-opacity="0.8" stroke="#000000" stroke-opacity="0.8" stroke-width="4.8"></path>
<polyline clip-path="url(#clip022)" style="stroke:#808080; stroke-linecap:round; stroke-linejoin:round; stroke-width:4; stroke-opacity:0.6; fill:none" points="1586.35,888.029 1561.08,865.933 "></polyline>
<polyline clip-path="url(#clip022)" style="stroke:#808080; stroke-linecap:round; stroke-linejoin:round; stroke-width:4; stroke-opacity:0.6; fill:none" points="1561.08,865.933 1424.41,747.462 "></polyline>
<polyline clip-path="url(#clip022)" style="stroke:#808080; stroke-linecap:round; stroke-linejoin:round; stroke-width:4; stroke-opacity:0.6; fill:none" points="1091.72,652.815 1129.93,681.605 "></polyline>
<polyline clip-path="url(#clip022)" style="stroke:#808080; stroke-linecap:round; stroke-linejoin:round; stroke-width:4; stroke-opacity:0.6; fill:none" points="1129.93,681.605 1243.27,768.982 "></polyline>
<polyline clip-path="url(#clip022)" style="stroke:#808080; stroke-linecap:round; stroke-linejoin:round; stroke-width:4; stroke-opacity:0.6; fill:none" points="986.454,702.477 1015,722.522 "></polyline>
<polyline clip-path="url(#clip022)" style="stroke:#808080; stroke-linecap:round; stroke-linejoin:round; stroke-width:4; stroke-opacity:0.6; fill:none" points="1015,722.522 1145.72,809.72 "></polyline>
<polyline clip-path="url(#clip022)" style="stroke:#808080; stroke-linecap:round; stroke-linejoin:round; stroke-width:4; stroke-opacity:0.6; fill:none" points="1257.49,780.426 1288.1,803.386 "></polyline>
<polyline clip-path="url(#clip022)" style="stroke:#808080; stroke-linecap:round; stroke-linejoin:round; stroke-width:4; stroke-opacity:0.6; fill:none" points="1288.1,803.386 1479.93,951.439 "></polyline>
<polyline clip-path="url(#clip022)" style="stroke:#808080; stroke-linecap:round; stroke-linejoin:round; stroke-width:4; stroke-opacity:0.6; fill:none" points="1974.98,1286.27 1932.58,1253.45 "></polyline>
<polyline clip-path="url(#clip022)" style="stroke:#808080; stroke-linecap:round; stroke-linejoin:round; stroke-width:4; stroke-opacity:0.6; fill:none" points="1932.58,1253.45 1888.36,1219.55 "></polyline>
<polyline clip-path="url(#clip022)" style="stroke:#808080; stroke-linecap:round; stroke-linejoin:round; stroke-width:4; stroke-opacity:0.6; fill:none" points="643.804,331.014 666.401,349.008 "></polyline>
<polyline clip-path="url(#clip022)" style="stroke:#808080; stroke-linecap:round; stroke-linejoin:round; stroke-width:4; stroke-opacity:0.6; fill:none" points="666.401,349.008 690.394,367.218 "></polyline>
<polyline clip-path="url(#clip022)" style="stroke:#808080; stroke-linecap:round; stroke-linejoin:round; stroke-width:4; stroke-opacity:0.6; fill:none" points="923.464,660.768 932.454,667.03 "></polyline>
<polyline clip-path="url(#clip022)" style="stroke:#808080; stroke-linecap:round; stroke-linejoin:round; stroke-width:4; stroke-opacity:0.6; fill:none" points="932.454,667.03 986.454,702.477 "></polyline>
<polyline clip-path="url(#clip022)" style="stroke:#808080; stroke-linecap:round; stroke-linejoin:round; stroke-width:4; stroke-opacity:0.6; fill:none" points="643.136,305.283 654.374,313.956 "></polyline>
<polyline clip-path="url(#clip022)" style="stroke:#808080; stroke-linecap:round; stroke-linejoin:round; stroke-width:4; stroke-opacity:0.6; fill:none" points="654.374,313.956 665.186,322.593 "></polyline>
<polyline clip-path="url(#clip022)" style="stroke:#808080; stroke-linecap:round; stroke-linejoin:round; stroke-width:4; stroke-opacity:0.6; fill:none" points="1460.98,960.22 1524.39,1008.44 "></polyline>
<polyline clip-path="url(#clip022)" style="stroke:#808080; stroke-linecap:round; stroke-linejoin:round; stroke-width:4; stroke-opacity:0.6; fill:none" points="1524.39,1008.44 1800.71,1220.66 "></polyline>
<polyline clip-path="url(#clip022)" style="stroke:#808080; stroke-linecap:round; stroke-linejoin:round; stroke-width:4; stroke-opacity:0.6; fill:none" points="2445.37,1628.22 2393.01,1587.12 "></polyline>
<polyline clip-path="url(#clip022)" style="stroke:#808080; stroke-linecap:round; stroke-linejoin:round; stroke-width:4; stroke-opacity:0.6; fill:none" points="2393.01,1587.12 2125.62,1379.19 "></polyline>
<polyline clip-path="url(#clip022)" style="stroke:#808080; stroke-linecap:round; stroke-linejoin:round; stroke-width:4; stroke-opacity:0.6; fill:none" points="1954.81,1196.51 1940.72,1185.5 "></polyline>
<polyline clip-path="url(#clip022)" style="stroke:#808080; stroke-linecap:round; stroke-linejoin:round; stroke-width:4; stroke-opacity:0.6; fill:none" points="1940.72,1185.5 1894.07,1149.01 "></polyline>
<polyline clip-path="url(#clip022)" style="stroke:#808080; stroke-linecap:round; stroke-linejoin:round; stroke-width:4; stroke-opacity:0.6; fill:none" points="2146.4,1371.2 2134,1361.34 "></polyline>
<polyline clip-path="url(#clip022)" style="stroke:#808080; stroke-linecap:round; stroke-linejoin:round; stroke-width:4; stroke-opacity:0.6; fill:none" points="2134,1361.34 2016.53,1269.14 "></polyline>
<polyline clip-path="url(#clip022)" style="stroke:#808080; stroke-linecap:round; stroke-linejoin:round; stroke-width:4; stroke-opacity:0.6; fill:none" points="1181.8,810.944 1219.83,836.711 "></polyline>
<polyline clip-path="url(#clip022)" style="stroke:#808080; stroke-linecap:round; stroke-linejoin:round; stroke-width:4; stroke-opacity:0.6; fill:none" points="1219.83,836.711 1423.68,976.702 "></polyline>
<polyline clip-path="url(#clip022)" style="stroke:#808080; stroke-linecap:round; stroke-linejoin:round; stroke-width:4; stroke-opacity:0.6; fill:none" points="3071.63,2121.32 3037.49,2094.47 "></polyline>
<polyline clip-path="url(#clip022)" style="stroke:#808080; stroke-linecap:round; stroke-linejoin:round; stroke-width:4; stroke-opacity:0.6; fill:none" points="3037.49,2094.47 2607.07,1755.29 "></polyline>
<polyline clip-path="url(#clip022)" style="stroke:#808080; stroke-linecap:round; stroke-linejoin:round; stroke-width:4; stroke-opacity:0.6; fill:none" points="2125.62,1379.19 2081.52,1344.64 "></polyline>
<polyline clip-path="url(#clip022)" style="stroke:#808080; stroke-linecap:round; stroke-linejoin:round; stroke-width:4; stroke-opacity:0.6; fill:none" points="2081.52,1344.64 1995.51,1277.13 "></polyline>
<polyline clip-path="url(#clip022)" style="stroke:#808080; stroke-linecap:round; stroke-linejoin:round; stroke-width:4; stroke-opacity:0.6; fill:none" points="1236.35,789.855 1259.55,806.409 "></polyline>
<polyline clip-path="url(#clip022)" style="stroke:#808080; stroke-linecap:round; stroke-linejoin:round; stroke-width:4; stroke-opacity:0.6; fill:none" points="1259.55,806.409 1460.98,960.22 "></polyline>
<polyline clip-path="url(#clip022)" style="stroke:#808080; stroke-linecap:round; stroke-linejoin:round; stroke-width:4; stroke-opacity:0.6; fill:none" points="367.364,189.727 395.063,212.327 "></polyline>
<polyline clip-path="url(#clip022)" style="stroke:#808080; stroke-linecap:round; stroke-linejoin:round; stroke-width:4; stroke-opacity:0.6; fill:none" points="395.063,212.327 817.164,550.034 "></polyline>
<polyline clip-path="url(#clip022)" style="stroke:#808080; stroke-linecap:round; stroke-linejoin:round; stroke-width:4; stroke-opacity:0.6; fill:none" points="1910.35,1347.52 1937.56,1366.12 "></polyline>
<polyline clip-path="url(#clip022)" style="stroke:#808080; stroke-linecap:round; stroke-linejoin:round; stroke-width:4; stroke-opacity:0.6; fill:none" points="1937.56,1366.12 1985.67,1402.22 "></polyline>
<polyline clip-path="url(#clip022)" style="stroke:#808080; stroke-linecap:round; stroke-linejoin:round; stroke-width:4; stroke-opacity:0.6; fill:none" points="2609.62,1826.15 2660.04,1865.95 "></polyline>
<polyline clip-path="url(#clip022)" style="stroke:#808080; stroke-linecap:round; stroke-linejoin:round; stroke-width:4; stroke-opacity:0.6; fill:none" points="2660.04,1865.95 3013.92,2146.22 "></polyline>
<polyline clip-path="url(#clip022)" style="stroke:#808080; stroke-linecap:round; stroke-linejoin:round; stroke-width:4; stroke-opacity:0.6; fill:none" points="690.394,367.218 731.335,398.527 "></polyline>
<polyline clip-path="url(#clip022)" style="stroke:#808080; stroke-linecap:round; stroke-linejoin:round; stroke-width:4; stroke-opacity:0.6; fill:none" points="731.335,398.527 772.518,430.304 "></polyline>
<polyline clip-path="url(#clip022)" style="stroke:#808080; stroke-linecap:round; stroke-linejoin:round; stroke-width:4; stroke-opacity:0.6; fill:none" points="1642.84,959.284 1626.2,944.853 "></polyline>
<polyline clip-path="url(#clip022)" style="stroke:#808080; stroke-linecap:round; stroke-linejoin:round; stroke-width:4; stroke-opacity:0.6; fill:none" points="1626.2,944.853 1566.99,895.171 "></polyline>
<path clip-path="url(#clip020)" d="M1446.39 407.522 L1992.6 407.522 L1992.6 200.162 L1446.39 200.162  Z" fill="#ffffff" fill-rule="evenodd" fill-opacity="1"></path>
<polyline clip-path="url(#clip020)" style="stroke:#000000; stroke-linecap:round; stroke-linejoin:round; stroke-width:4; stroke-opacity:1; fill:none" points="1446.39,407.522 1992.6,407.522 1992.6,200.162 1446.39,200.162 1446.39,407.522 "></polyline>
<circle clip-path="url(#clip020)" cx="1573.79" cy="252.002" r="20.48" fill="#0000ff" fill-rule="evenodd" fill-opacity="0.8" stroke="#000000" stroke-opacity="0.8" stroke-width="6.82667"></circle>
<path clip-path="url(#clip020)" d="M1701.19 234.722 L1730.43 234.722 L1730.43 238.657 L1718.16 238.657 L1718.16 269.282 L1713.46 269.282 L1713.46 238.657 L1701.19 238.657 L1701.19 234.722 Z" fill="#000000" fill-rule="nonzero" fill-opacity="1"></path><path clip-path="url(#clip020)" d="M1733.3 243.356 L1737.56 243.356 L1737.56 269.282 L1733.3 269.282 L1733.3 243.356 M1733.3 233.263 L1737.56 233.263 L1737.56 238.657 L1733.3 238.657 L1733.3 233.263 Z" fill="#000000" fill-rule="nonzero" fill-opacity="1"></path><path clip-path="url(#clip020)" d="M1766.66 248.333 Q1768.25 245.462 1770.47 244.097 Q1772.7 242.731 1775.71 242.731 Q1779.76 242.731 1781.96 245.578 Q1784.16 248.402 1784.16 253.634 L1784.16 269.282 L1779.87 269.282 L1779.87 253.773 Q1779.87 250.046 1778.55 248.24 Q1777.23 246.435 1774.53 246.435 Q1771.22 246.435 1769.29 248.634 Q1767.37 250.833 1767.37 254.629 L1767.37 269.282 L1763.09 269.282 L1763.09 253.773 Q1763.09 250.023 1761.77 248.24 Q1760.45 246.435 1757.7 246.435 Q1754.43 246.435 1752.51 248.657 Q1750.59 250.856 1750.59 254.629 L1750.59 269.282 L1746.31 269.282 L1746.31 243.356 L1750.59 243.356 L1750.59 247.384 Q1752.05 244.999 1754.09 243.865 Q1756.12 242.731 1758.92 242.731 Q1761.75 242.731 1763.72 244.166 Q1765.71 245.601 1766.66 248.333 Z" fill="#000000" fill-rule="nonzero" fill-opacity="1"></path><path clip-path="url(#clip020)" d="M1814.83 255.254 L1814.83 257.337 L1795.24 257.337 Q1795.52 261.735 1797.88 264.05 Q1800.27 266.342 1804.5 266.342 Q1806.96 266.342 1809.25 265.74 Q1811.56 265.138 1813.83 263.935 L1813.83 267.962 Q1811.54 268.934 1809.13 269.444 Q1806.72 269.953 1804.25 269.953 Q1798.04 269.953 1794.41 266.342 Q1790.8 262.731 1790.8 256.573 Q1790.8 250.208 1794.22 246.481 Q1797.67 242.731 1803.51 242.731 Q1808.74 242.731 1811.77 246.111 Q1814.83 249.467 1814.83 255.254 M1810.57 254.004 Q1810.52 250.509 1808.6 248.425 Q1806.7 246.342 1803.55 246.342 Q1799.99 246.342 1797.84 248.356 Q1795.71 250.37 1795.38 254.027 L1810.57 254.004 Z" fill="#000000" fill-rule="nonzero" fill-opacity="1"></path><path clip-path="url(#clip020)" d="M1838.34 244.12 L1838.34 248.148 Q1836.54 247.222 1834.59 246.759 Q1832.65 246.296 1830.57 246.296 Q1827.4 246.296 1825.8 247.268 Q1824.22 248.24 1824.22 250.185 Q1824.22 251.666 1825.36 252.523 Q1826.49 253.356 1829.92 254.12 L1831.38 254.444 Q1835.91 255.416 1837.81 257.198 Q1839.73 258.958 1839.73 262.129 Q1839.73 265.74 1836.86 267.847 Q1834.02 269.953 1829.02 269.953 Q1826.93 269.953 1824.66 269.536 Q1822.42 269.143 1819.92 268.333 L1819.92 263.935 Q1822.28 265.161 1824.57 265.786 Q1826.86 266.388 1829.11 266.388 Q1832.12 266.388 1833.74 265.37 Q1835.36 264.328 1835.36 262.453 Q1835.36 260.717 1834.18 259.791 Q1833.02 258.865 1829.06 258.009 L1827.58 257.661 Q1823.62 256.828 1821.86 255.115 Q1820.1 253.379 1820.1 250.37 Q1820.1 246.712 1822.7 244.722 Q1825.29 242.731 1830.06 242.731 Q1832.42 242.731 1834.5 243.078 Q1836.59 243.425 1838.34 244.12 Z" fill="#000000" fill-rule="nonzero" fill-opacity="1"></path><path clip-path="url(#clip020)" d="M1850.73 235.995 L1850.73 243.356 L1859.5 243.356 L1859.5 246.666 L1850.73 246.666 L1850.73 260.74 Q1850.73 263.911 1851.59 264.814 Q1852.46 265.717 1855.13 265.717 L1859.5 265.717 L1859.5 269.282 L1855.13 269.282 Q1850.2 269.282 1848.32 267.453 Q1846.45 265.601 1846.45 260.74 L1846.45 246.666 L1843.32 246.666 L1843.32 243.356 L1846.45 243.356 L1846.45 235.995 L1850.73 235.995 Z" fill="#000000" fill-rule="nonzero" fill-opacity="1"></path><path clip-path="url(#clip020)" d="M1887.28 255.254 L1887.28 257.337 L1867.7 257.337 Q1867.97 261.735 1870.34 264.05 Q1872.72 266.342 1876.96 266.342 Q1879.41 266.342 1881.7 265.74 Q1884.02 265.138 1886.28 263.935 L1886.28 267.962 Q1883.99 268.934 1881.59 269.444 Q1879.18 269.953 1876.7 269.953 Q1870.5 269.953 1866.86 266.342 Q1863.25 262.731 1863.25 256.573 Q1863.25 250.208 1866.68 246.481 Q1870.13 242.731 1875.96 242.731 Q1881.19 242.731 1884.22 246.111 Q1887.28 249.467 1887.28 255.254 M1883.02 254.004 Q1882.97 250.509 1881.05 248.425 Q1879.15 246.342 1876.01 246.342 Q1872.44 246.342 1870.29 248.356 Q1868.16 250.37 1867.84 254.027 L1883.02 254.004 Z" fill="#000000" fill-rule="nonzero" fill-opacity="1"></path><path clip-path="url(#clip020)" d="M1898.39 265.393 L1898.39 279.143 L1894.11 279.143 L1894.11 243.356 L1898.39 243.356 L1898.39 247.291 Q1899.73 244.976 1901.77 243.865 Q1903.83 242.731 1906.68 242.731 Q1911.4 242.731 1914.34 246.481 Q1917.3 250.231 1917.3 256.342 Q1917.3 262.453 1914.34 266.203 Q1911.4 269.953 1906.68 269.953 Q1903.83 269.953 1901.77 268.842 Q1899.73 267.708 1898.39 265.393 M1912.88 256.342 Q1912.88 251.643 1910.94 248.981 Q1909.02 246.296 1905.64 246.296 Q1902.26 246.296 1900.31 248.981 Q1898.39 251.643 1898.39 256.342 Q1898.39 261.041 1900.31 263.726 Q1902.26 266.388 1905.64 266.388 Q1909.02 266.388 1910.94 263.726 Q1912.88 261.041 1912.88 256.342 Z" fill="#000000" fill-rule="nonzero" fill-opacity="1"></path><path clip-path="url(#clip020)" d="M1940.84 265.347 L1948.48 265.347 L1948.48 238.981 L1940.17 240.648 L1940.17 236.388 L1948.44 234.722 L1953.11 234.722 L1953.11 265.347 L1960.75 265.347 L1960.75 269.282 L1940.84 269.282 L1940.84 265.347 Z" fill="#000000" fill-rule="nonzero" fill-opacity="1"></path><path clip-path="url(#clip020)" d="M1573.79 281.086 L1551.04 303.842 L1573.79 326.597 L1596.55 303.842 L1573.79 281.086 Z" fill="#ff0000" fill-rule="evenodd" fill-opacity="0.8" stroke="#000000" stroke-opacity="0.8" stroke-width="6.82667"></path>
<path clip-path="url(#clip020)" d="M1701.19 286.562 L1730.43 286.562 L1730.43 290.497 L1718.16 290.497 L1718.16 321.122 L1713.46 321.122 L1713.46 290.497 L1701.19 290.497 L1701.19 286.562 Z" fill="#000000" fill-rule="nonzero" fill-opacity="1"></path><path clip-path="url(#clip020)" d="M1733.3 295.196 L1737.56 295.196 L1737.56 321.122 L1733.3 321.122 L1733.3 295.196 M1733.3 285.103 L1737.56 285.103 L1737.56 290.497 L1733.3 290.497 L1733.3 285.103 Z" fill="#000000" fill-rule="nonzero" fill-opacity="1"></path><path clip-path="url(#clip020)" d="M1766.66 300.173 Q1768.25 297.302 1770.47 295.937 Q1772.7 294.571 1775.71 294.571 Q1779.76 294.571 1781.96 297.418 Q1784.16 300.242 1784.16 305.474 L1784.16 321.122 L1779.87 321.122 L1779.87 305.613 Q1779.87 301.886 1778.55 300.08 Q1777.23 298.275 1774.53 298.275 Q1771.22 298.275 1769.29 300.474 Q1767.37 302.673 1767.37 306.469 L1767.37 321.122 L1763.09 321.122 L1763.09 305.613 Q1763.09 301.863 1761.77 300.08 Q1760.45 298.275 1757.7 298.275 Q1754.43 298.275 1752.51 300.497 Q1750.59 302.696 1750.59 306.469 L1750.59 321.122 L1746.31 321.122 L1746.31 295.196 L1750.59 295.196 L1750.59 299.224 Q1752.05 296.839 1754.09 295.705 Q1756.12 294.571 1758.92 294.571 Q1761.75 294.571 1763.72 296.006 Q1765.71 297.441 1766.66 300.173 Z" fill="#000000" fill-rule="nonzero" fill-opacity="1"></path><path clip-path="url(#clip020)" d="M1814.83 307.094 L1814.83 309.177 L1795.24 309.177 Q1795.52 313.575 1797.88 315.89 Q1800.27 318.182 1804.5 318.182 Q1806.96 318.182 1809.25 317.58 Q1811.56 316.978 1813.83 315.775 L1813.83 319.802 Q1811.54 320.774 1809.13 321.284 Q1806.72 321.793 1804.25 321.793 Q1798.04 321.793 1794.41 318.182 Q1790.8 314.571 1790.8 308.413 Q1790.8 302.048 1794.22 298.321 Q1797.67 294.571 1803.51 294.571 Q1808.74 294.571 1811.77 297.951 Q1814.83 301.307 1814.83 307.094 M1810.57 305.844 Q1810.52 302.349 1808.6 300.265 Q1806.7 298.182 1803.55 298.182 Q1799.99 298.182 1797.84 300.196 Q1795.71 302.21 1795.38 305.867 L1810.57 305.844 Z" fill="#000000" fill-rule="nonzero" fill-opacity="1"></path><path clip-path="url(#clip020)" d="M1838.34 295.96 L1838.34 299.988 Q1836.54 299.062 1834.59 298.599 Q1832.65 298.136 1830.57 298.136 Q1827.4 298.136 1825.8 299.108 Q1824.22 300.08 1824.22 302.025 Q1824.22 303.506 1825.36 304.363 Q1826.49 305.196 1829.92 305.96 L1831.38 306.284 Q1835.91 307.256 1837.81 309.038 Q1839.73 310.798 1839.73 313.969 Q1839.73 317.58 1836.86 319.687 Q1834.02 321.793 1829.02 321.793 Q1826.93 321.793 1824.66 321.376 Q1822.42 320.983 1819.92 320.173 L1819.92 315.775 Q1822.28 317.001 1824.57 317.626 Q1826.86 318.228 1829.11 318.228 Q1832.12 318.228 1833.74 317.21 Q1835.36 316.168 1835.36 314.293 Q1835.36 312.557 1834.18 311.631 Q1833.02 310.705 1829.06 309.849 L1827.58 309.501 Q1823.62 308.668 1821.86 306.955 Q1820.1 305.219 1820.1 302.21 Q1820.1 298.552 1822.7 296.562 Q1825.29 294.571 1830.06 294.571 Q1832.42 294.571 1834.5 294.918 Q1836.59 295.265 1838.34 295.96 Z" fill="#000000" fill-rule="nonzero" fill-opacity="1"></path><path clip-path="url(#clip020)" d="M1850.73 287.835 L1850.73 295.196 L1859.5 295.196 L1859.5 298.506 L1850.73 298.506 L1850.73 312.58 Q1850.73 315.751 1851.59 316.654 Q1852.46 317.557 1855.13 317.557 L1859.5 317.557 L1859.5 321.122 L1855.13 321.122 Q1850.2 321.122 1848.32 319.293 Q1846.45 317.441 1846.45 312.58 L1846.45 298.506 L1843.32 298.506 L1843.32 295.196 L1846.45 295.196 L1846.45 287.835 L1850.73 287.835 Z" fill="#000000" fill-rule="nonzero" fill-opacity="1"></path><path clip-path="url(#clip020)" d="M1887.28 307.094 L1887.28 309.177 L1867.7 309.177 Q1867.97 313.575 1870.34 315.89 Q1872.72 318.182 1876.96 318.182 Q1879.41 318.182 1881.7 317.58 Q1884.02 316.978 1886.28 315.775 L1886.28 319.802 Q1883.99 320.774 1881.59 321.284 Q1879.18 321.793 1876.7 321.793 Q1870.5 321.793 1866.86 318.182 Q1863.25 314.571 1863.25 308.413 Q1863.25 302.048 1866.68 298.321 Q1870.13 294.571 1875.96 294.571 Q1881.19 294.571 1884.22 297.951 Q1887.28 301.307 1887.28 307.094 M1883.02 305.844 Q1882.97 302.349 1881.05 300.265 Q1879.15 298.182 1876.01 298.182 Q1872.44 298.182 1870.29 300.196 Q1868.16 302.21 1867.84 305.867 L1883.02 305.844 Z" fill="#000000" fill-rule="nonzero" fill-opacity="1"></path><path clip-path="url(#clip020)" d="M1898.39 317.233 L1898.39 330.983 L1894.11 330.983 L1894.11 295.196 L1898.39 295.196 L1898.39 299.131 Q1899.73 296.816 1901.77 295.705 Q1903.83 294.571 1906.68 294.571 Q1911.4 294.571 1914.34 298.321 Q1917.3 302.071 1917.3 308.182 Q1917.3 314.293 1914.34 318.043 Q1911.4 321.793 1906.68 321.793 Q1903.83 321.793 1901.77 320.682 Q1899.73 319.548 1898.39 317.233 M1912.88 308.182 Q1912.88 303.483 1910.94 300.821 Q1909.02 298.136 1905.64 298.136 Q1902.26 298.136 1900.31 300.821 Q1898.39 303.483 1898.39 308.182 Q1898.39 312.881 1900.31 315.566 Q1902.26 318.228 1905.64 318.228 Q1909.02 318.228 1910.94 315.566 Q1912.88 312.881 1912.88 308.182 Z" fill="#000000" fill-rule="nonzero" fill-opacity="1"></path><path clip-path="url(#clip020)" d="M1944.06 317.187 L1960.38 317.187 L1960.38 321.122 L1938.44 321.122 L1938.44 317.187 Q1941.1 314.432 1945.68 309.802 Q1950.29 305.15 1951.47 303.807 Q1953.71 301.284 1954.59 299.548 Q1955.5 297.789 1955.5 296.099 Q1955.5 293.344 1953.55 291.608 Q1951.63 289.872 1948.53 289.872 Q1946.33 289.872 1943.88 290.636 Q1941.45 291.4 1938.67 292.951 L1938.67 288.228 Q1941.49 287.094 1943.95 286.515 Q1946.4 285.937 1948.44 285.937 Q1953.81 285.937 1957 288.622 Q1960.2 291.307 1960.2 295.798 Q1960.2 297.927 1959.39 299.849 Q1958.6 301.747 1956.49 304.339 Q1955.91 305.011 1952.81 308.228 Q1949.71 311.423 1944.06 317.187 Z" fill="#000000" fill-rule="nonzero" fill-opacity="1"></path><path clip-path="url(#clip020)" d="M1573.79 332.926 L1568.44 348.309 L1552.15 348.65 L1565.14 358.503 L1560.41 374.091 L1573.79 364.784 L1587.17 374.091 L1582.44 358.503 L1595.43 348.65 L1579.14 348.309 L1573.79 332.926 Z" fill="#008000" fill-rule="evenodd" fill-opacity="0.8" stroke="#000000" stroke-opacity="0.8" stroke-width="6.82667"></path>
<path clip-path="url(#clip020)" d="M1701.19 338.402 L1723.04 338.402 L1723.04 342.337 L1705.87 342.337 L1705.87 352.568 L1722.33 352.568 L1722.33 356.503 L1705.87 356.503 L1705.87 369.027 L1723.46 369.027 L1723.46 372.962 L1701.19 372.962 L1701.19 338.402 Z" fill="#000000" fill-rule="nonzero" fill-opacity="1"></path><path clip-path="url(#clip020)" d="M1752.51 357.314 L1752.51 372.962 L1748.25 372.962 L1748.25 357.453 Q1748.25 353.772 1746.82 351.943 Q1745.38 350.115 1742.51 350.115 Q1739.06 350.115 1737.07 352.314 Q1735.08 354.513 1735.08 358.309 L1735.08 372.962 L1730.8 372.962 L1730.8 347.036 L1735.08 347.036 L1735.08 351.064 Q1736.61 348.726 1738.67 347.568 Q1740.75 346.411 1743.46 346.411 Q1747.93 346.411 1750.22 349.189 Q1752.51 351.943 1752.51 357.314 Z" fill="#000000" fill-rule="nonzero" fill-opacity="1"></path><path clip-path="url(#clip020)" d="M1778.07 350.971 L1778.07 336.943 L1782.33 336.943 L1782.33 372.962 L1778.07 372.962 L1778.07 369.073 Q1776.72 371.388 1774.66 372.522 Q1772.63 373.633 1769.76 373.633 Q1765.06 373.633 1762.1 369.883 Q1759.16 366.133 1759.16 360.022 Q1759.16 353.911 1762.1 350.161 Q1765.06 346.411 1769.76 346.411 Q1772.63 346.411 1774.66 347.545 Q1776.72 348.656 1778.07 350.971 M1763.55 360.022 Q1763.55 364.721 1765.47 367.406 Q1767.42 370.068 1770.8 370.068 Q1774.18 370.068 1776.12 367.406 Q1778.07 364.721 1778.07 360.022 Q1778.07 355.323 1776.12 352.661 Q1774.18 349.976 1770.8 349.976 Q1767.42 349.976 1765.47 352.661 Q1763.55 355.323 1763.55 360.022 Z" fill="#000000" fill-rule="nonzero" fill-opacity="1"></path></svg>